<?xml version="1.0" encoding="UTF-8" standalone="no"?>
<svg
   xmlns:dc="http://purl.org/dc/elements/1.1/"
   xmlns:cc="http://creativecommons.org/ns#"
   xmlns:rdf="http://www.w3.org/1999/02/22-rdf-syntax-ns#"
   xmlns:svg="http://www.w3.org/2000/svg"
   xmlns="http://www.w3.org/2000/svg"
   viewBox="0 0 605.08612 171.62266"
   height="171.62267"
   width="605.08612"
   xml:space="preserve"
   id="svg10"
   version="1.1"><metadata
     id="metadata16"><rdf:RDF><cc:Work
         rdf:about=""><dc:format>image/svg+xml</dc:format><dc:type
           rdf:resource="http://purl.org/dc/dcmitype/StillImage" /><dc:title></dc:title></cc:Work></rdf:RDF></metadata><defs
     id="defs14" /><g
     transform="matrix(1.3333333,0,0,-1.3333333,1.9994792,169.62266)"
     id="g18"><g
       transform="scale(0.1)"
       id="g20"><path
         id="path22"
         style="fill:#cc193a;fill-opacity:1;fill-rule:nonzero;stroke:none"
         d="M 0.00390625,3.44922 V 91.7188 L 1137.88,92.2617 l 70.26,-62.9726 70.22,62.9726 444.08,-0.5429 -0.04,-88.26958 H 0.00390625" /><path
         id="path24"
         style="fill:#2a3741;fill-opacity:1;fill-rule:nonzero;stroke:none"
         d="m 955.965,397.078 c -169.68,0 -307.699,138.059 -307.699,307.738 0,169.68 138.019,307.704 307.699,307.704 h 215.525 c -40.94,-41.094 -67.91,-91.825 -76.84,-109.954 l -138.646,0.586 c -109.406,0 -198.375,-88.968 -198.375,-198.336 0,-109.398 88.969,-198.375 198.336,-198.375 H 1057.3 V 397.078 H 955.965" /><path
         id="path26"
         style="fill:#2a3741;fill-opacity:1;fill-rule:nonzero;stroke:none"
         d="m 1424.25,906.313 c -89.32,0 -161.99,-72.676 -161.99,-162.04 v -80.394 c 0,-89.359 72.67,-162.035 161.99,-162.035 h 27.46 c 89.32,0 161.99,72.676 161.99,162.035 v 80.394 c 0,89.364 -72.67,162.04 -161.99,162.04 z m -269.4,-763.524 v 601.484 c 0,148.586 120.86,269.447 269.4,269.447 h 27.46 c 148.54,0 269.41,-120.861 269.41,-269.447 v -80.394 c 0,-148.547 -120.87,-269.41 -269.41,-269.41 h -27.46 c -51.15,0 -101.13,14.699 -144.6,42.492 l -17.39,11.113 V 142.789 l -53.73,-50.5273 -53.68,50.5273" /><path
         id="path28"
         style="fill:#2a3741;fill-opacity:1;fill-rule:nonzero;stroke:none"
         d="m 270.738,904.559 c -89.363,0 -162.039,-72.676 -162.039,-162.043 V 662.09 c 0,-89.328 72.676,-162.004 162.039,-162.004 h 27.41 c 89.36,0 162.036,72.676 162.036,162.004 v 80.426 c 0,89.367 -72.676,162.043 -162.036,162.043 z m 0,-511.883 C 122.191,392.676 1.32422,513.543 1.32422,662.09 v 80.426 c 0,148.55 120.86678,269.414 269.41378,269.414 h 27.41 c 51.192,0 101.176,-14.696 144.649,-42.5 l 17.387,-11.106 V 1257.17 H 567.563 V 662.09 c 0,-148.547 -120.872,-269.414 -269.415,-269.414 h -27.41" /><path
         id="path30"
         style="fill:#2a3741;fill-opacity:1;fill-rule:nonzero;stroke:none"
         d="m 2279.14,894.055 c 0,55.765 -33.69,101.058 -97.7,101.058 h -41.92 V 792.996 h 41.92 c 64.01,0 97.7,45.289 97.7,101.059 z m 33.68,0 c 0,-75.61 -48.28,-131.004 -129.5,-131.004 h -75.24 v 261.999 h 75.24 c 81.22,0 129.5,-55.39 129.5,-130.995" /><path
         id="path32"
         style="fill:#2a3741;fill-opacity:1;fill-rule:nonzero;stroke:none"
         d="m 2371.6,935.973 h 31.43 V 763.051 h -31.43 z m 15.72,76.737 c 11.6,0 21.33,-9.73 21.33,-21.339 0,-11.601 -9.73,-21.336 -21.33,-21.336 -11.6,0 -21.34,9.735 -21.34,21.336 0,11.609 9.74,21.339 21.34,21.339" /><path
         id="path34"
         style="fill:#2a3741;fill-opacity:1;fill-rule:nonzero;stroke:none"
         d="m 2482.02,815.074 c 0,0 18.34,-28.07 52.4,-28.07 17.6,0 37.43,7.484 37.43,21.336 0,14.973 -12.72,22.461 -39.3,27.699 -37.05,7.484 -63.26,22.086 -63.26,54.649 0,25.078 25.08,49.781 63.64,49.781 40.8,0 64,-26.203 64,-26.203 l -20.59,-21.332 c 0,0 -17.21,19.086 -43.41,19.086 -22.09,0 -32.94,-10.856 -32.94,-22.086 0,-13.098 13.47,-20.211 41.92,-26.196 32.94,-7.113 61.01,-19.468 61.01,-54.648 0,-33.317 -35.19,-50.531 -68.5,-50.531 -48.66,0 -74.11,36.308 -74.11,36.308 l 21.71,20.207" /><path
         id="path36"
         style="fill:#2a3741;fill-opacity:1;fill-rule:nonzero;stroke:none"
         d="m 2641.85,935.973 h 33.68 v 52.781 h 31.45 v -52.781 h 53.9 v -28.446 h -53.9 v -93.199 c 0,-16.844 8.23,-26.574 25.08,-26.574 9.72,0 19.83,7.113 19.83,7.113 l 11.61,-25.824 c -14.98,-8.238 -25.83,-10.484 -35.93,-10.484 -24.71,0 -52.04,16.093 -52.04,54.273 v 94.695 h -33.68 v 28.446" /><path
         id="path38"
         style="fill:#2a3741;fill-opacity:1;fill-rule:nonzero;stroke:none"
         d="m 2915.09,935.973 -11.6,-28.446 c 0,0 -6.73,3.746 -19.84,3.746 -27.32,0 -39.67,-29.195 -39.67,-29.195 V 763.051 h -31.44 v 172.922 h 29.2 v -26.571 c 0,0 15.34,31.067 48.28,31.067 14.22,0 25.07,-4.496 25.07,-4.496" /><path
         id="path40"
         style="fill:#2a3741;fill-opacity:1;fill-rule:nonzero;stroke:none"
         d="m 2960.39,935.973 h 31.43 V 763.051 h -31.43 z m 15.72,76.737 c 11.6,0 21.33,-9.73 21.33,-21.339 0,-11.601 -9.73,-21.336 -21.33,-21.336 -11.6,0 -21.34,9.735 -21.34,21.336 0,11.609 9.74,21.339 21.34,21.339" /><path
         id="path42"
         style="fill:#2a3741;fill-opacity:1;fill-rule:nonzero;stroke:none"
         d="m 3098.49,817.699 c 0,0 16.48,-29.945 50.91,-29.945 35.19,0 57.27,27.699 57.27,61.762 0,34.054 -22.83,61.757 -57.27,61.757 -34.43,0 -50.91,-29.949 -50.91,-29.949 z m 139.62,31.817 c 0,-50.911 -37.06,-90.957 -83.85,-90.957 -41.54,0 -58.38,29.57 -58.38,29.57 v -25.078 h -28.82 v 282.969 h 31.43 V 914.641 c 0,0 17.6,25.828 55.77,25.828 46.79,0 83.85,-40.051 83.85,-90.953" /><path
         id="path44"
         style="fill:#2a3741;fill-opacity:1;fill-rule:nonzero;stroke:none"
         d="m 3289.03,824.809 v 111.164 h 31.45 V 830.047 c 0,-29.567 18.34,-42.293 41.54,-42.293 29.2,0 43.05,28.445 43.05,28.445 v 119.774 h 31.43 V 763.051 h -29.19 v 26.578 c 0,0 -15.72,-31.07 -53.15,-31.07 -34.44,0 -65.13,23.578 -65.13,66.25" /><path
         id="path46"
         style="fill:#2a3741;fill-opacity:1;fill-rule:nonzero;stroke:none"
         d="m 3484.42,935.973 h 33.68 v 52.781 h 31.45 v -52.781 h 53.89 v -28.446 h -53.89 v -93.199 c 0,-16.844 8.23,-26.574 25.08,-26.574 9.72,0 19.83,7.113 19.83,7.113 l 11.61,-25.824 c -14.98,-8.238 -25.83,-10.484 -35.94,-10.484 -24.7,0 -52.03,16.093 -52.03,54.273 v 94.695 h -33.68 v 28.446" /><path
         id="path48"
         style="fill:#2a3741;fill-opacity:1;fill-rule:nonzero;stroke:none"
         d="m 3783.11,864.484 c -1.12,19.465 -18.71,46.789 -53.52,46.789 -37.43,0 -52.78,-28.824 -55.02,-46.789 z m 30.7,-16.093 c 0,-3.368 0,-5.993 -0.38,-10.106 h -139.61 c 1.87,-26.203 26.95,-50.531 59.52,-50.531 34.05,0 52.02,25.453 52.02,25.453 l 19.84,-20.586 c 0,0 -26.2,-34.062 -71.86,-34.062 -52.41,0 -90.22,39.675 -90.22,90.957 0,50.527 34.45,90.953 86.47,90.953 48.29,0 84.22,-36.313 84.22,-92.078" /><path
         id="path50"
         style="fill:#2a3741;fill-opacity:1;fill-rule:nonzero;stroke:none"
         d="m 3992.36,881.324 c 0,0 -16.47,29.949 -50.91,29.949 -34.43,0 -57.26,-27.703 -57.26,-61.757 0,-34.063 22.08,-61.762 57.26,-61.762 34.44,0 50.91,29.945 50.91,29.945 z m 0,33.317 v 131.379 h 31.44 V 763.051 h -28.82 v 25.078 c 0,0 -16.85,-29.57 -58.39,-29.57 -46.79,0 -83.84,40.046 -83.84,90.957 0,50.902 37.05,90.953 83.84,90.953 38.17,0 55.77,-25.828 55.77,-25.828" /><path
         id="path52"
         style="fill:#2a3741;fill-opacity:1;fill-rule:nonzero;stroke:none"
         d="m 2300.85,589.629 c 0,0 -24.33,30.695 -72.24,30.695 -56.89,0 -95.82,-49.777 -95.82,-105.551 0,-55.769 38.93,-105.554 95.82,-105.554 47.54,0 75.61,34.812 75.61,34.812 l 21.33,-21.711 c 0,0 -35.55,-43.047 -96.94,-43.047 -75.61,0 -129.51,59.895 -129.51,135.5 0,75.606 53.9,135.493 129.51,135.493 61.39,0 93.95,-40.043 93.95,-40.043 l -21.71,-20.594" /><path
         id="path54"
         style="fill:#2a3741;fill-opacity:1;fill-rule:nonzero;stroke:none"
         d="m 2506.73,470.23 c 0,34.067 -22.84,61.758 -57.64,61.758 -34.82,0 -57.65,-27.691 -57.65,-61.758 0,-34.058 22.83,-61.757 57.65,-61.757 34.8,0 57.64,27.699 57.64,61.757 z m 31.44,0 c 0,-50.906 -38.18,-90.957 -89.08,-90.957 -50.91,0 -89.09,40.051 -89.09,90.957 0,50.903 38.18,90.958 89.09,90.958 50.9,0 89.08,-40.055 89.08,-90.958" /><path
         id="path56"
         style="fill:#2a3741;fill-opacity:1;fill-rule:nonzero;stroke:none"
         d="m 2577.48,490.066 h 99.93 v -29.941 h -99.93 v 29.941" /><path
         id="path58"
         style="fill:#2a3741;fill-opacity:1;fill-rule:nonzero;stroke:none"
         d="m 2805.06,501.668 c -38.19,17.598 -71.87,35.184 -71.87,79.727 0,30.695 25.45,68.871 75.61,68.871 49.41,0 74.49,-38.176 74.49,-38.176 l -23.59,-19.094 c 0,0 -18.34,27.328 -50.9,27.328 -28.82,0 -44.17,-20.211 -44.17,-38.929 0,-26.575 22.46,-37.051 58.39,-53.528 40.05,-18.34 65.13,-35.183 65.13,-77.48 0,-42.664 -35.18,-71.114 -81.22,-71.114 -62.14,0 -83.48,54.653 -83.48,54.653 l 26.21,15.719 c 0,0 15.72,-40.426 57.27,-40.426 25.08,0 49.03,14.226 49.03,41.168 0,27.328 -21.7,37.812 -50.9,51.281" /><path
         id="path60"
         style="fill:#2a3741;fill-opacity:1;fill-rule:nonzero;stroke:none"
         d="m 2952.17,556.695 h 31.43 V 383.766 h -31.43 z m 15.72,76.731 c 11.6,0 21.33,-9.731 21.33,-21.336 0,-11.606 -9.73,-21.34 -21.33,-21.34 -11.6,0 -21.34,9.734 -21.34,21.34 0,11.605 9.74,21.336 21.34,21.336" /><path
         id="path62"
         style="fill:#2a3741;fill-opacity:1;fill-rule:nonzero;stroke:none"
         d="M 3294.65,494.93 V 383.766 h -31.45 v 106.3 c 0,28.075 -14.6,41.922 -37.05,41.922 -25.83,0 -37.06,-27.691 -37.06,-27.691 V 383.766 h -31.44 v 106.3 c 0,28.075 -14.6,41.922 -37.06,41.922 -25.45,0 -37.05,-27.691 -37.05,-27.691 V 383.766 h -31.44 v 172.929 h 29.2 v -25.457 c 0,0 12.72,29.95 47.91,29.95 43.03,0 53.89,-32.196 53.89,-32.196 0,0 13.85,32.196 51.65,32.196 35.94,0 59.9,-23.583 59.9,-66.258" /><path
         id="path64"
         style="fill:#2a3741;fill-opacity:1;fill-rule:nonzero;stroke:none"
         d="m 3357.54,445.523 v 111.172 h 31.44 V 450.77 c 0,-29.571 18.34,-42.297 41.54,-42.297 29.2,0 43.05,28.449 43.05,28.449 v 119.773 h 31.44 V 383.766 h -29.19 v 26.574 c 0,0 -15.73,-31.067 -53.16,-31.067 -34.43,0 -65.12,23.586 -65.12,66.25" /><path
         id="path66"
         style="fill:#2a3741;fill-opacity:1;fill-rule:nonzero;stroke:none"
         d="m 3574.64,666.734 h 31.43 V 383.766 h -31.43 v 282.968" /><path
         id="path68"
         style="fill:#2a3741;fill-opacity:1;fill-rule:nonzero;stroke:none"
         d="m 3787.99,433.172 v 24.336 c 0,0 -17.22,12.344 -45.29,12.344 -26.95,0 -43.8,-13.465 -43.8,-31.434 0,-22.461 20.22,-31.449 39.68,-31.449 30.69,0 49.41,26.203 49.41,26.203 z m 31.44,64.383 V 383.766 h -28.82 v 25.078 c 0,0 -19.46,-29.571 -58.77,-29.571 -31.06,0 -64.37,21.711 -64.37,59.145 0,33.68 29.57,57.637 68.49,57.637 31.82,0 52.03,-14.219 52.03,-14.219 v 9.352 c 0,35.941 -29.95,40.8 -43.79,40.8 -26.2,0 -51.65,-14.597 -51.65,-14.597 l -13.11,26.203 c 0,0 26.95,17.594 64.76,17.594 50.9,0 75.23,-31.446 75.23,-63.633" /><path
         id="path70"
         style="fill:#2a3741;fill-opacity:1;fill-rule:nonzero;stroke:none"
         d="m 3867.35,556.695 h 33.68 v 52.774 h 31.45 v -52.774 h 53.89 V 528.25 h -53.89 v -93.203 c 0,-16.848 8.23,-26.574 25.08,-26.574 9.72,0 19.83,7.113 19.83,7.113 L 3989,389.754 c -14.98,-8.234 -25.83,-10.481 -35.94,-10.481 -24.7,0 -52.03,16.094 -52.03,54.282 v 94.695 h -33.68 v 28.445" /><path
         id="path72"
         style="fill:#2a3741;fill-opacity:1;fill-rule:nonzero;stroke:none"
         d="m 4043.65,556.695 h 31.44 V 383.766 h -31.44 z m 15.72,76.731 c 11.6,0 21.33,-9.731 21.33,-21.336 0,-11.606 -9.73,-21.34 -21.33,-21.34 -11.6,0 -21.34,9.734 -21.34,21.34 0,11.605 9.74,21.336 21.34,21.336" /><path
         id="path74"
         style="fill:#2a3741;fill-opacity:1;fill-rule:nonzero;stroke:none"
         d="m 4278.33,470.23 c 0,34.067 -22.83,61.758 -57.64,61.758 -34.81,0 -57.65,-27.691 -57.65,-61.758 0,-34.058 22.84,-61.757 57.65,-61.757 34.81,0 57.64,27.699 57.64,61.757 z m 31.44,0 c 0,-50.906 -38.18,-90.957 -89.08,-90.957 -50.91,0 -89.09,40.051 -89.09,90.957 0,50.903 38.18,90.958 89.09,90.958 50.9,0 89.08,-40.055 89.08,-90.958" /><path
         id="path76"
         style="fill:#2a3741;fill-opacity:1;fill-rule:nonzero;stroke:none"
         d="M 4508.15,494.93 V 383.766 h -31.43 v 105.929 c 0,29.571 -18.34,42.293 -41.56,42.293 -28.06,0 -43.03,-29.195 -43.03,-29.195 V 383.766 h -31.45 v 172.929 h 29.2 v -24.336 c 0,0 15.71,28.829 53.14,28.829 34.44,0 65.13,-23.583 65.13,-66.258" /><path
         id="path78"
         style="fill:#2a3741;fill-opacity:1;fill-rule:nonzero;stroke:none"
         d="m 2188.94,138.48 c 35.56,0 59.89,15.731 59.89,49.04 0,33.32 -24.33,49.031 -59.89,49.031 H 2154.5 V 138.48 Z m -65.88,128.024 h 67.75 c 54.65,0 89.46,-28.832 89.46,-78.984 0,-50.161 -34.81,-78.981 -89.46,-78.981 H 2154.5 V 4.48828 h -31.44 V 266.504" /><path
         id="path80"
         style="fill:#2a3741;fill-opacity:1;fill-rule:nonzero;stroke:none"
         d="m 2431.49,177.422 -11.6,-28.453 c 0,0 -6.74,3.742 -19.84,3.742 -27.33,0 -39.67,-29.199 -39.67,-29.199 V 4.48828 h -31.45 V 177.422 h 29.2 V 150.84 c 0,0 15.34,31.07 48.28,31.07 14.22,0 25.08,-4.488 25.08,-4.488" /><path
         id="path82"
         style="fill:#2a3741;fill-opacity:1;fill-rule:nonzero;stroke:none"
         d="m 2599.94,90.9492 c 0,34.0708 -22.83,61.7618 -57.64,61.7618 -34.81,0 -57.64,-27.691 -57.64,-61.7618 0,-34.0586 22.83,-61.75 57.64,-61.75 34.81,0 57.64,27.6914 57.64,61.75 z m 31.44,0 C 2631.38,40.0508 2593.2,0 2542.3,0 c -50.91,0 -89.08,40.0508 -89.08,90.9492 0,50.9028 38.17,90.9608 89.08,90.9608 50.9,0 89.08,-40.058 89.08,-90.9608" /><path
         id="path84"
         style="fill:#2a3741;fill-opacity:1;fill-rule:nonzero;stroke:none"
         d="M 2667.32,177.422 H 2701 v 52.769 h 31.45 v -52.769 h 53.89 v -28.453 h -53.89 V 55.7695 c 0,-16.8476 8.23,-26.5703 25.08,-26.5703 9.72,0 19.83,7.1094 19.83,7.1094 l 11.61,-25.8281 C 2773.99,2.23828 2763.14,0 2753.03,0 2728.33,0 2701,16.0898 2701,54.2813 v 94.6877 h -33.68 v 28.453" /><path
         id="path86"
         style="fill:#2a3741;fill-opacity:1;fill-rule:nonzero;stroke:none"
         d="m 2972.75,90.9492 c 0,34.0708 -22.83,61.7618 -57.64,61.7618 -34.81,0 -57.64,-27.691 -57.64,-61.7618 0,-34.0586 22.83,-61.75 57.64,-61.75 34.81,0 57.64,27.6914 57.64,61.75 z m 31.45,0 C 3004.2,40.0508 2966.01,0 2915.11,0 c -50.9,0 -89.08,40.0508 -89.08,90.9492 0,50.9028 38.18,90.9608 89.08,90.9608 50.9,0 89.09,-40.058 89.09,-90.9608" /><path
         id="path88"
         style="fill:#2a3741;fill-opacity:1;fill-rule:nonzero;stroke:none"
         d="m 3202.96,33.3086 c 0,0 -25.08,-33.3086 -70.75,-33.3086 -50.9,0 -89.09,40.0508 -89.09,90.9492 0,50.5308 38.19,90.9608 89.09,90.9608 44.16,0 68.87,-31.07 68.87,-31.07 l -21.34,-19.078 c 0,0 -16.83,20.949 -47.53,20.949 -34.81,0 -57.64,-27.691 -57.64,-61.7618 0,-34.0586 22.83,-61.75 57.64,-61.75 33.69,0 50.53,24.6914 50.53,24.6914 l 20.22,-20.582" /><path
         id="path90"
         style="fill:#2a3741;fill-opacity:1;fill-rule:nonzero;stroke:none"
         d="m 3383.37,90.9492 c 0,34.0708 -22.84,61.7618 -57.64,61.7618 -34.81,0 -57.65,-27.691 -57.65,-61.7618 0,-34.0586 22.84,-61.75 57.65,-61.75 34.8,0 57.64,27.6914 57.64,61.75 z m 31.44,0 C 3414.81,40.0508 3376.63,0 3325.73,0 c -50.91,0 -89.09,40.0508 -89.09,90.9492 0,50.9028 38.18,90.9608 89.09,90.9608 50.9,0 89.08,-40.058 89.08,-90.9608" /><path
         id="path92"
         style="fill:#2a3741;fill-opacity:1;fill-rule:nonzero;stroke:none"
         d="m 3472.47,287.461 h 31.43 V 4.48828 h -31.43 V 287.461" /></g></g></svg>