<?xml version="1.0" encoding="UTF-8" standalone="no"?>
<!DOCTYPE svg PUBLIC "-//W3C//DTD SVG 1.1//EN" "http://www.w3.org/Graphics/SVG/1.1/DTD/svg11.dtd">
<svg width="100%" height="100%" viewBox="0 0 227 55" version="1.1" xmlns="http://www.w3.org/2000/svg" xmlns:xlink="http://www.w3.org/1999/xlink" xml:space="preserve" xmlns:serif="http://www.serif.com/" style="fill-rule:evenodd;clip-rule:evenodd;stroke-linejoin:round;stroke-miterlimit:2;"><g id="eFMI"><g><path d="M102.68,16.94l4.206,0l0,1.156l-4.206,0l0,4.612l-1.214,-0l0,-10.119l5.71,0l-0,1.156l-4.496,0l0,3.195Z" style="fill:#1f262f;fill-rule:nonzero;"/></g><g><path d="M109.025,20.323l-0,-4.293l1.214,-0l-0,4.09c-0,1.142 0.708,1.634 1.604,1.634c1.128,-0 1.662,-1.099 1.662,-1.099l0,-4.625l1.215,-0l-0,6.678l-1.128,-0l0,-1.027c0,0 -0.607,1.2 -2.052,1.2c-1.33,0 -2.515,-0.911 -2.515,-2.558" style="fill:#1f262f;fill-rule:nonzero;"/></g><g><path d="M122.524,18.415l0,4.293l-1.213,-0l-0,-4.091c-0,-1.142 -0.709,-1.633 -1.605,-1.633c-1.084,-0 -1.662,1.127 -1.662,1.127l-0,4.597l-1.215,-0l0,-6.678l1.128,-0l-0,0.939c-0,0 0.607,-1.113 2.052,-1.113c1.33,0 2.515,0.911 2.515,2.559" style="fill:#1f262f;fill-rule:nonzero;"/></g><g><path d="M130.344,21.595c-0,-0 -0.969,1.286 -2.732,1.286c-1.966,0 -3.44,-1.546 -3.44,-3.512c-0,-1.952 1.474,-3.513 3.44,-3.513c1.706,0 2.66,1.2 2.66,1.2l-0.825,0.737c0,0 -0.65,-0.809 -1.835,-0.809c-1.345,-0 -2.226,1.069 -2.226,2.385c-0,1.315 0.881,2.385 2.226,2.385c1.301,-0 1.951,-0.954 1.951,-0.954l0.781,0.795Z" style="fill:#1f262f;fill-rule:nonzero;"/></g><g><path d="M131.21,16.03l1.301,-0l-0,-2.039l1.214,0l-0,2.039l2.081,-0l0,1.098l-2.081,0l-0,3.599c-0,0.651 0.318,1.027 0.968,1.027c0.376,-0 0.766,-0.275 0.766,-0.275l0.449,0.997c-0.579,0.318 -0.998,0.405 -1.388,0.405c-0.954,-0 -2.009,-0.622 -2.009,-2.096l-0,-3.657l-1.301,0l-0,-1.098Z" style="fill:#1f262f;fill-rule:nonzero;"/></g><g><path d="M137.7,16.03l1.213,-0l0,6.678l-1.213,-0l-0,-6.678Zm0.606,-2.964c0.449,0 0.825,0.376 0.825,0.824c-0,0.448 -0.376,0.824 -0.825,0.824c-0.448,0 -0.823,-0.376 -0.823,-0.824c-0,-0.448 0.375,-0.824 0.823,-0.824" style="fill:#1f262f;fill-rule:nonzero;"/></g><g><path d="M146.444,19.369c-0,-1.316 -0.882,-2.385 -2.226,-2.385c-1.345,-0 -2.226,1.069 -2.226,2.385c0,1.315 0.881,2.385 2.226,2.385c1.344,-0 2.226,-1.07 2.226,-2.385m1.214,-0c-0,1.966 -1.474,3.512 -3.44,3.512c-1.966,0 -3.44,-1.546 -3.44,-3.512c-0,-1.966 1.474,-3.513 3.44,-3.513c1.966,0 3.44,1.547 3.44,3.513" style="fill:#1f262f;fill-rule:nonzero;"/></g><g><path d="M155,18.415l0,4.293l-1.214,-0l0,-4.091c0,-1.142 -0.708,-1.633 -1.604,-1.633c-1.084,-0 -1.662,1.127 -1.662,1.127l-0,4.597l-1.215,-0l0,-6.678l1.128,-0l-0,0.939c-0,0 0.607,-1.113 2.052,-1.113c1.33,0 2.515,0.911 2.515,2.559" style="fill:#1f262f;fill-rule:nonzero;"/></g><g><path d="M161.446,20.8l-0,-0.94c-0,0 -0.665,-0.477 -1.749,-0.477c-1.041,0 -1.691,0.521 -1.691,1.214c-0,0.868 0.78,1.215 1.532,1.215c1.185,-0 1.908,-1.012 1.908,-1.012m1.214,-2.487l0,4.395l-1.113,-0l0,-0.969c0,0 -0.751,1.142 -2.269,1.142c-1.2,0 -2.486,-0.838 -2.486,-2.284c-0,-1.301 1.142,-2.226 2.644,-2.226c1.23,0 2.01,0.55 2.01,0.55l-0,-0.362c-0,-1.387 -1.156,-1.575 -1.691,-1.575c-1.012,-0 -1.995,0.563 -1.995,0.563l-0.506,-1.012c-0,0 1.041,-0.679 2.501,-0.679c1.966,0 2.905,1.214 2.905,2.457" style="fill:#1f262f;fill-rule:nonzero;"/></g><g><rect x="165.03" y="11.78" width="1.214" height="10.928" style="fill:#1f262f;"/></g><g><path d="M174.396,12.589l3.483,5.652l3.469,-5.652l1.171,0l0,10.119l-1.214,-0l0,-7.922l-3.455,5.624l-3.454,-5.609l-0,7.907l-1.214,-0l-0,-10.119l1.214,0Z" style="fill:#1f262f;fill-rule:nonzero;"/></g><g><path d="M190.092,19.369c-0,-1.316 -0.882,-2.385 -2.226,-2.385c-1.344,-0 -2.226,1.069 -2.226,2.385c0,1.315 0.882,2.385 2.226,2.385c1.344,-0 2.226,-1.07 2.226,-2.385m1.214,-0c0,1.966 -1.474,3.512 -3.44,3.512c-1.966,0 -3.44,-1.546 -3.44,-3.512c-0,-1.966 1.474,-3.513 3.44,-3.513c1.966,0 3.44,1.547 3.44,3.513" style="fill:#1f262f;fill-rule:nonzero;"/></g><g><path d="M198.663,21.595c0,-0 -0.969,1.286 -2.732,1.286c-1.966,0 -3.44,-1.546 -3.44,-3.512c0,-1.952 1.474,-3.513 3.44,-3.513c1.706,0 2.66,1.2 2.66,1.2l-0.824,0.737c-0,0 -0.651,-0.809 -1.836,-0.809c-1.344,-0 -2.226,1.069 -2.226,2.385c0,1.315 0.882,2.385 2.226,2.385c1.301,-0 1.951,-0.954 1.951,-0.954l0.781,0.795Z" style="fill:#1f262f;fill-rule:nonzero;"/></g><g><path d="M201.582,19.47l-0,3.238l-1.214,-0l-0,-10.928l1.214,-0l-0,7.213l2.862,-2.963l1.59,-0l-3.122,3.151l3.382,3.527l-1.691,-0l-3.021,-3.238Z" style="fill:#1f262f;fill-rule:nonzero;"/></g><g><rect x="207.059" y="18.602" width="3.859" height="1.156" style="fill:#1f262f;"/></g><g><path d="M212.58,20.323l0,-4.293l1.214,-0l0,4.09c0,1.142 0.709,1.634 1.605,1.634c1.127,-0 1.662,-1.099 1.662,-1.099l0,-4.625l1.214,-0l0,6.678l-1.127,-0l-0,-1.027c-0,0 -0.607,1.2 -2.053,1.2c-1.329,0 -2.515,-0.911 -2.515,-2.558" style="fill:#1f262f;fill-rule:nonzero;"/></g><g><path d="M221.599,20.612c0,-0 0.636,1.142 1.966,1.142c1.358,-0 2.211,-1.07 2.211,-2.385c0,-1.316 -0.853,-2.385 -2.211,-2.385c-1.33,-0 -1.966,1.142 -1.966,1.142l0,2.486Zm-0.101,-4.582l-0,0.968c-0,0 0.665,-1.142 2.255,-1.142c1.807,0 3.238,1.547 3.238,3.513c-0,1.966 -1.431,3.512 -3.238,3.512c-1.229,0 -1.923,-0.694 -2.154,-0.997l0,4.148l-1.214,0l-0,-10.002l1.113,-0Z" style="fill:#1f262f;fill-rule:nonzero;"/></g><g><rect x="101.668" y="26.786" width="1.214" height="10.118" style="fill:#1f262f;"/></g><g><path d="M111.15,32.611l-0,4.293l-1.214,-0l-0,-4.091c-0,-1.142 -0.709,-1.633 -1.605,-1.633c-1.084,-0 -1.662,1.127 -1.662,1.127l0,4.597l-1.214,-0l-0,-6.678l1.127,-0l-0,0.939c-0,-0 0.607,-1.112 2.053,-1.112c1.33,-0 2.515,0.91 2.515,2.558" style="fill:#1f262f;fill-rule:nonzero;"/></g><g><path d="M112.681,30.226l1.301,-0l0,-2.038l1.214,-0l0,2.038l2.082,-0l-0,1.098l-2.082,0l0,3.6c0,0.65 0.318,1.026 0.969,1.026c0.375,-0 0.766,-0.274 0.766,-0.274l0.448,0.997c-0.578,0.318 -0.998,0.404 -1.388,0.404c-0.954,0 -2.009,-0.621 -2.009,-2.095l0,-3.658l-1.301,0l0,-1.098Z" style="fill:#1f262f;fill-rule:nonzero;"/></g><g><path d="M123.897,32.986c-0.043,-0.751 -0.723,-1.806 -2.067,-1.806c-1.445,-0 -2.038,1.112 -2.125,1.806l4.192,0Zm1.185,0.622c0,0.13 0,0.231 -0.014,0.39l-5.392,0c0.072,1.012 1.041,1.952 2.298,1.952c1.316,-0 2.01,-0.983 2.01,-0.983l0.766,0.795c-0,-0 -1.012,1.315 -2.776,1.315c-2.023,-0 -3.483,-1.532 -3.483,-3.512c0,-1.952 1.33,-3.512 3.339,-3.512c1.865,-0 3.252,1.401 3.252,3.555" style="fill:#1f262f;fill-rule:nonzero;"/></g><g><path d="M130.69,30.226l-0.448,1.098c-0,0 -0.261,-0.144 -0.766,-0.144c-1.056,-0 -1.532,1.127 -1.532,1.127l-0,4.597l-1.215,-0l0,-6.678l1.127,-0l0,1.026c0,0 0.593,-1.199 1.865,-1.199c0.55,-0 0.969,0.173 0.969,0.173" style="fill:#1f262f;fill-rule:nonzero;"/></g><g><path d="M131.267,30.226l1.388,-0l-0,-2.299c-0,-1.416 1.098,-2.124 2.053,-2.124c0.39,-0 0.823,0.072 1.401,0.39l-0.447,0.997c-0,0 -0.405,-0.26 -0.781,-0.26c-0.651,0 -1.012,0.42 -1.012,1.07l0,2.226l1.735,-0l-0,1.098l-1.735,0l0,5.58l-1.214,-0l-0,-5.58l-1.388,0l0,-1.098Z" style="fill:#1f262f;fill-rule:nonzero;"/></g><g><path d="M141.342,34.996l-0,-0.94c-0,0 -0.665,-0.477 -1.749,-0.477c-1.041,0 -1.692,0.521 -1.692,1.215c0,0.867 0.781,1.214 1.533,1.214c1.185,-0 1.908,-1.012 1.908,-1.012m1.214,-2.486l-0,4.394l-1.113,-0l-0,-0.968c-0,-0 -0.751,1.141 -2.269,1.141c-1.2,0 -2.487,-0.838 -2.487,-2.283c0,-1.301 1.142,-2.226 2.645,-2.226c1.229,-0 2.01,0.549 2.01,0.549l-0,-0.362c-0,-1.387 -1.157,-1.575 -1.692,-1.575c-1.011,-0 -1.994,0.564 -1.994,0.564l-0.506,-1.012c-0,-0 1.04,-0.679 2.5,-0.679c1.966,-0 2.906,1.213 2.906,2.457" style="fill:#1f262f;fill-rule:nonzero;"/></g><g><path d="M150.376,35.791c-0,-0 -0.969,1.286 -2.732,1.286c-1.966,0 -3.441,-1.546 -3.441,-3.512c0,-1.952 1.475,-3.512 3.441,-3.512c1.705,-0 2.659,1.199 2.659,1.199l-0.824,0.737c0,0 -0.65,-0.809 -1.835,-0.809c-1.345,-0 -2.226,1.069 -2.226,2.385c-0,1.315 0.881,2.385 2.226,2.385c1.3,-0 1.951,-0.954 1.951,-0.954l0.781,0.795Z" style="fill:#1f262f;fill-rule:nonzero;"/></g><g><path d="M156.763,32.986c-0.043,-0.751 -0.722,-1.806 -2.067,-1.806c-1.445,-0 -2.038,1.112 -2.125,1.806l4.192,0Zm1.186,0.622c-0,0.13 -0,0.231 -0.015,0.39l-5.391,0c0.072,1.012 1.04,1.952 2.298,1.952c1.315,-0 2.009,-0.983 2.009,-0.983l0.766,0.795c-0,-0 -1.012,1.315 -2.775,1.315c-2.024,-0 -3.484,-1.532 -3.484,-3.512c0,-1.952 1.33,-3.512 3.339,-3.512c1.865,-0 3.253,1.401 3.253,3.555" style="fill:#1f262f;fill-rule:nonzero;"/></g><g><path d="M163.267,30.226l1.387,-0l0,-2.299c0,-1.416 1.099,-2.124 2.053,-2.124c0.39,-0 0.824,0.072 1.402,0.39l-0.448,0.997c-0,0 -0.405,-0.26 -0.781,-0.26c-0.65,0 -1.011,0.42 -1.011,1.07l-0,2.226l1.734,-0l-0,1.098l-1.734,0l-0,5.58l-1.215,-0l0,-5.58l-1.387,0l-0,-1.098Z" style="fill:#1f262f;fill-rule:nonzero;"/></g><g><path d="M174.15,33.565c0,-1.316 -0.882,-2.385 -2.226,-2.385c-1.344,-0 -2.226,1.069 -2.226,2.385c0,1.315 0.882,2.385 2.226,2.385c1.344,-0 2.226,-1.07 2.226,-2.385m1.214,-0c0,1.965 -1.474,3.512 -3.44,3.512c-1.966,-0 -3.44,-1.547 -3.44,-3.512c-0,-1.966 1.474,-3.512 3.44,-3.512c1.966,-0 3.44,1.546 3.44,3.512" style="fill:#1f262f;fill-rule:nonzero;"/></g><g><path d="M180.972,30.226l-0.448,1.098c0,0 -0.26,-0.144 -0.766,-0.144c-1.055,-0 -1.532,1.127 -1.532,1.127l-0,4.597l-1.215,-0l0,-6.678l1.128,-0l-0,1.026c-0,0 0.592,-1.199 1.865,-1.199c0.549,-0 0.968,0.173 0.968,0.173" style="fill:#1f262f;fill-rule:nonzero;"/></g><g><path d="M106.149,47.183c-0.043,-0.752 -0.723,-1.807 -2.067,-1.807c-1.445,0 -2.038,1.113 -2.125,1.807l4.192,-0Zm1.185,0.621c0,0.131 0,0.232 -0.014,0.391l-5.392,-0c0.072,1.012 1.041,1.951 2.298,1.951c1.316,0 2.01,-0.983 2.01,-0.983l0.766,0.795c-0,0 -1.012,1.315 -2.776,1.315c-2.023,0 -3.483,-1.532 -3.483,-3.512c0,-1.951 1.33,-3.512 3.339,-3.512c1.865,-0 3.252,1.402 3.252,3.555" style="fill:#1f262f;fill-rule:nonzero;"/></g><g><path d="M118.348,46.807l-0,4.293l-1.214,-0l0,-4.105c0,-1.084 -0.564,-1.619 -1.431,-1.619c-0.998,0 -1.431,1.07 -1.431,1.07l-0,4.654l-1.215,-0l0,-4.105c0,-1.084 -0.563,-1.619 -1.43,-1.619c-0.983,0 -1.431,1.07 -1.431,1.07l-0,4.654l-1.215,-0l0,-6.678l1.128,0l-0,0.983c-0,0 0.491,-1.156 1.85,-1.156c1.662,-0 2.081,1.243 2.081,1.243c0,-0 0.535,-1.243 1.995,-1.243c1.388,-0 2.313,0.91 2.313,2.558" style="fill:#1f262f;fill-rule:nonzero;"/></g><g><path d="M121.932,48.99c-0,-0 0.635,1.156 1.965,1.156c1.359,-0 2.212,-1.07 2.212,-2.385c-0,-1.315 -0.882,-2.385 -2.212,-2.385c-1.33,0 -1.965,1.156 -1.965,1.156l-0,2.458Zm5.391,-1.229c0,1.966 -1.431,3.512 -3.238,3.512c-1.604,0 -2.255,-1.141 -2.255,-1.141l0,0.968l-1.112,-0l-0,-10.928l1.214,0l-0,5.074c-0,-0 0.679,-0.997 2.153,-0.997c1.807,-0 3.238,1.546 3.238,3.512" style="fill:#1f262f;fill-rule:nonzero;"/></g><g><path d="M133.913,47.183c-0.043,-0.752 -0.723,-1.807 -2.067,-1.807c-1.445,0 -2.038,1.113 -2.125,1.807l4.192,-0Zm1.185,0.621c0,0.131 0,0.232 -0.014,0.391l-5.391,-0c0.072,1.012 1.04,1.951 2.298,1.951c1.315,0 2.009,-0.983 2.009,-0.983l0.766,0.795c-0,0 -1.012,1.315 -2.775,1.315c-2.024,0 -3.484,-1.532 -3.484,-3.512c0,-1.951 1.33,-3.512 3.339,-3.512c1.865,-0 3.252,1.402 3.252,3.555" style="fill:#1f262f;fill-rule:nonzero;"/></g><g><path d="M141.675,46.532c-0,0 -0.636,-1.156 -1.966,-1.156c-1.33,0 -2.212,1.07 -2.212,2.385c0,1.315 0.853,2.385 2.212,2.385c1.33,-0 1.966,-1.156 1.966,-1.156l-0,-2.458Zm-0,-1.286l-0,-5.074l1.214,0l-0,10.928l-1.113,-0l-0,-0.968c-0,-0 -0.651,1.141 -2.255,1.141c-1.807,0 -3.238,-1.546 -3.238,-3.512c0,-1.966 1.431,-3.512 3.238,-3.512c1.474,-0 2.154,0.997 2.154,0.997" style="fill:#1f262f;fill-rule:nonzero;"/></g><g><path d="M150.187,46.532c0,0 -0.635,-1.156 -1.965,-1.156c-1.33,0 -2.212,1.07 -2.212,2.385c0,1.315 0.853,2.385 2.212,2.385c1.33,-0 1.965,-1.156 1.965,-1.156l0,-2.458Zm0,-1.286l0,-5.074l1.215,0l-0,10.928l-1.113,-0l-0,-0.968c-0,-0 -0.651,1.141 -2.255,1.141c-1.807,0 -3.238,-1.546 -3.238,-3.512c0,-1.966 1.431,-3.512 3.238,-3.512c1.474,-0 2.153,0.997 2.153,0.997" style="fill:#1f262f;fill-rule:nonzero;"/></g><g><path d="M158.715,47.183c-0.043,-0.752 -0.723,-1.807 -2.067,-1.807c-1.446,0 -2.038,1.113 -2.125,1.807l4.192,-0Zm1.185,0.621c-0,0.131 -0,0.232 -0.014,0.391l-5.392,-0c0.072,1.012 1.041,1.951 2.298,1.951c1.316,0 2.009,-0.983 2.009,-0.983l0.766,0.795c0,0 -1.011,1.315 -2.775,1.315c-2.023,0 -3.483,-1.532 -3.483,-3.512c-0,-1.951 1.33,-3.512 3.339,-3.512c1.864,-0 3.252,1.402 3.252,3.555" style="fill:#1f262f;fill-rule:nonzero;"/></g><g><path d="M166.476,46.532c0,0 -0.636,-1.156 -1.965,-1.156c-1.33,0 -2.212,1.07 -2.212,2.385c-0,1.315 0.853,2.385 2.212,2.385c1.329,-0 1.965,-1.156 1.965,-1.156l0,-2.458Zm0,-1.286l0,-5.074l1.214,0l0,10.928l-1.112,-0l-0,-0.968c-0,-0 -0.651,1.141 -2.255,1.141c-1.807,0 -3.238,-1.546 -3.238,-3.512c-0,-1.966 1.431,-3.512 3.238,-3.512c1.474,-0 2.153,0.997 2.153,0.997" style="fill:#1f262f;fill-rule:nonzero;"/></g><g><path d="M174.772,49.091c-0,-0 0.708,1.084 2.024,1.084c0.679,0 1.445,-0.289 1.445,-0.824c-0,-0.578 -0.491,-0.867 -1.518,-1.069c-1.431,-0.29 -2.443,-0.853 -2.443,-2.111c0,-0.968 0.969,-1.922 2.458,-1.922c1.575,-0 2.472,1.011 2.472,1.011l-0.795,0.824c-0,0 -0.665,-0.737 -1.677,-0.737c-0.853,0 -1.272,0.42 -1.272,0.853c-0,0.506 0.52,0.78 1.619,1.012c1.272,0.275 2.356,0.751 2.356,2.11c-0,1.287 -1.359,1.951 -2.645,1.951c-1.879,0 -2.862,-1.401 -2.862,-1.401l0.838,-0.781Z" style="fill:#1f262f;fill-rule:nonzero;"/></g><g><path d="M181.189,53.124c0,-0 0.419,0.347 0.795,0.347c0.535,-0 0.78,-0.376 1.041,-1.027l0.52,-1.315l-3.122,-6.707l1.373,-0l2.342,5.276l1.994,-5.276l1.316,-0c-0,-0 -3.354,8.442 -3.513,8.832c-0.39,0.968 -1.142,1.344 -1.85,1.344c-0.824,0 -1.416,-0.477 -1.416,-0.477l0.52,-0.997Z" style="fill:#1f262f;fill-rule:nonzero;"/></g><g><path d="M189.095,49.091c-0,-0 0.708,1.084 2.023,1.084c0.68,0 1.446,-0.289 1.446,-0.824c-0,-0.578 -0.491,-0.867 -1.518,-1.069c-1.431,-0.29 -2.443,-0.853 -2.443,-2.111c0,-0.968 0.969,-1.922 2.458,-1.922c1.575,-0 2.472,1.011 2.472,1.011l-0.795,0.824c-0,0 -0.665,-0.737 -1.677,-0.737c-0.853,0 -1.272,0.42 -1.272,0.853c-0,0.506 0.52,0.78 1.618,1.012c1.273,0.275 2.357,0.751 2.357,2.11c-0,1.287 -1.359,1.951 -2.646,1.951c-1.878,0 -2.861,-1.401 -2.861,-1.401l0.838,-0.781Z" style="fill:#1f262f;fill-rule:nonzero;"/></g><g><path d="M194.948,44.422l1.301,-0l0,-2.038l1.214,-0l0,2.038l2.082,-0l-0,1.098l-2.082,0l0,3.6c0,0.65 0.318,1.026 0.969,1.026c0.375,-0 0.766,-0.274 0.766,-0.274l0.448,0.997c-0.578,0.318 -0.998,0.404 -1.388,0.404c-0.954,0 -2.009,-0.621 -2.009,-2.095l0,-3.658l-1.301,0l0,-1.098Z" style="fill:#1f262f;fill-rule:nonzero;"/></g><g><path d="M206.165,47.183c-0.044,-0.752 -0.723,-1.807 -2.068,-1.807c-1.445,0 -2.038,1.113 -2.124,1.807l4.192,-0Zm1.185,0.621c-0,0.131 -0,0.232 -0.015,0.391l-5.391,-0c0.072,1.012 1.04,1.951 2.298,1.951c1.315,0 2.009,-0.983 2.009,-0.983l0.766,0.795c-0,0 -1.012,1.315 -2.775,1.315c-2.024,0 -3.483,-1.532 -3.483,-3.512c-0,-1.951 1.329,-3.512 3.338,-3.512c1.865,-0 3.253,1.402 3.253,3.555" style="fill:#1f262f;fill-rule:nonzero;"/></g><g><path d="M218.363,46.807l0,4.293l-1.214,-0l0,-4.105c0,-1.084 -0.564,-1.619 -1.431,-1.619c-0.998,0 -1.431,1.07 -1.431,1.07l-0,4.654l-1.215,-0l0,-4.105c0,-1.084 -0.563,-1.619 -1.43,-1.619c-0.983,0 -1.431,1.07 -1.431,1.07l-0,4.654l-1.215,-0l0,-6.678l1.128,0l-0,0.983c-0,0 0.491,-1.156 1.85,-1.156c1.662,-0 2.081,1.243 2.081,1.243c0,-0 0.535,-1.243 1.995,-1.243c1.388,-0 2.313,0.91 2.313,2.558" style="fill:#1f262f;fill-rule:nonzero;"/></g><g><path d="M220.877,49.091c-0,-0 0.708,1.084 2.024,1.084c0.679,0 1.445,-0.289 1.445,-0.824c-0,-0.578 -0.492,-0.867 -1.518,-1.069c-1.431,-0.29 -2.443,-0.853 -2.443,-2.111c-0,-0.968 0.969,-1.922 2.458,-1.922c1.575,-0 2.471,1.011 2.471,1.011l-0.795,0.824c0,0 -0.665,-0.737 -1.676,-0.737c-0.853,0 -1.272,0.42 -1.272,0.853c-0,0.506 0.52,0.78 1.618,1.012c1.273,0.275 2.357,0.751 2.357,2.11c-0,1.287 -1.359,1.951 -2.645,1.951c-1.879,0 -2.862,-1.401 -2.862,-1.401l0.838,-0.781Z" style="fill:#1f262f;fill-rule:nonzero;"/></g><g><path d="M0.589,50.258l0,-3.279l28.334,0.001l2.586,2.239l2.705,-2.239l50.868,0l0,3.278l-84.493,0Z" style="fill:#c8102e;fill-rule:nonzero;"/></g><g><path d="M70.852,35.797l0,-13.725c0,-2.43 -1.232,-4.184 -3.663,-5.214c-0.739,-0.173 -1.261,-0.244 -1.668,-0.244c-2.153,-0 -3.811,1.103 -4.93,3.28c-0.288,0.737 -0.423,1.618 -0.423,2.658l0.03,13.245l-4.044,-0l-0.031,-13.998c-0,-2.507 -1.342,-5.185 -5.112,-5.185c-4.497,-0 -5.509,3.872 -5.509,5.229l0,13.954l-4.043,-0l0.022,-13.624c-0,-6.102 3.409,-9.601 9.354,-9.601c2.698,-0 5.066,1.074 7.039,3.192l0.308,0.33l0.303,-0.335c1.953,-2.153 4.375,-3.246 7.199,-3.246c9.107,-0 9.211,8.749 9.211,9.121l0,14.163l-4.043,-0Z" style="fill:#1f262f;fill-rule:nonzero;"/></g><g><rect x="80.98" y="22.152" width="4.096" height="13.645" style="fill:#1f262f;"/></g><g><rect x="80.987" y="13.287" width="4.096" height="5.225" style="fill:#1f262f;"/></g><g><path d="M33.644,12.58l-0,-2.657c-0,-0.817 0.184,-1.719 0.551,-2.685c0.726,-1.889 2.428,-2.859 5.061,-2.883l0,-4.05c-1.378,0.008 -2.634,0.185 -3.712,0.517c-0.938,0.351 -1.839,0.852 -2.644,1.462c-2.193,2.073 -3.306,4.643 -3.306,7.639l-0,2.657l-0.768,0l0,-0.002l-7.869,0c1.528,1.414 2.374,3.328 2.654,4.047l1.436,-0l-0,0.002l4.547,0l-0,28.812l1.945,1.682l2.105,-1.69l-0,-28.804l5.215,0c0.28,-0.719 1.126,-2.633 2.653,-4.047l-7.868,0Z" style="fill:#1f262f;fill-rule:nonzero;"/></g><g><path d="M10.409,16.538l0.947,0c3.109,0 5.694,2.268 6.202,5.235l-13.351,0c0.508,-2.967 3.093,-5.235 6.202,-5.235m0.947,-4.109l-0.947,-0c-5.739,-0 -10.409,4.669 -10.409,10.409l0,2.43c0,5.739 4.67,10.409 10.409,10.409l0.947,0c4.055,0 7.573,-2.332 9.291,-5.725l-5.095,0c-1.115,1.001 -2.584,1.615 -4.196,1.615l-0.947,-0c-3.265,-0 -5.957,-2.499 -6.268,-5.684l17.605,-0.013c0.012,-0.2 0.019,-0.4 0.019,-0.602l0,-2.43c0,-5.74 -4.67,-10.409 -10.409,-10.409" style="fill:#c8102e;fill-rule:nonzero;"/></g></g></svg>