<?xml version="1.0" encoding="UTF-8" standalone="no"?>
<svg
   id="Ebene_2"
   viewBox="0 0 1511.811 1511.811"
   version="1.1"
   sodipodi:docname="modelica-Favicon_black.svg"
   width="1511.811"
   height="1511.811"
   inkscape:version="1.2 (dc2aedaf03, 2022-05-15)"
   inkscape:export-filename="modelica-Favicon_black.png"
   inkscape:export-xdpi="96"
   inkscape:export-ydpi="96"
   xmlns:inkscape="http://www.inkscape.org/namespaces/inkscape"
   xmlns:sodipodi="http://sodipodi.sourceforge.net/DTD/sodipodi-0.dtd"
   xmlns="http://www.w3.org/2000/svg"
   xmlns:svg="http://www.w3.org/2000/svg">
  <sodipodi:namedview
     id="namedview216"
     pagecolor="#ffffff"
     bordercolor="#000000"
     borderopacity="0.25"
     inkscape:showpageshadow="2"
     inkscape:pageopacity="0.0"
     inkscape:pagecheckerboard="0"
     inkscape:deskcolor="#d1d1d1"
     showgrid="false"
     inkscape:zoom="0.377"
     inkscape:cx="1135.2785"
     inkscape:cy="960.2122"
     inkscape:window-width="1920"
     inkscape:window-height="986"
     inkscape:window-x="3829"
     inkscape:window-y="1346"
     inkscape:window-maximized="1"
     inkscape:current-layer="svg182" />
  <defs
     id="defs202">
    <style
       id="style200">.cls-1{fill:none;}.cls-2{fill:#dd1d30;}.cls-3{fill:#1f252f;}</style>
  </defs>
  <g
     id="svg182">
    <g
       id="g212"
       transform="scale(3.023622)">
      <g
         id="g208">
        <g
           id="g262">
          <path
             id="path264"
             class="cls-2"
             d="m 294.93,349.23 c 0,-22.11 17.92,-40.03 40.03,-40.03 22.11,0 40.03,17.92 40.03,40.03 0,22.11 -17.92,40.03 -40.03,40.03 -22.11,0 -40.03,-17.92 -40.03,-40.03" />
        </g>
        <g
           id="g266">
          <path
             id="path268"
             class="cls-3"
             d="m 405.24,129.41 c -37.77,1.38 -80.15,42.38 -80.15,41.92 0.46,-23.49 -17.04,-46.06 -49.28,-41 -32.29,5.07 -72.91,45.73 -73.24,45.6 1.38,-17.04 -10.84,-39.8 -27.64,-43.76 -44.71,-10.53 -98.99,47.93 -117.85,71.43 -14.4,17.94 4.36,36.05 18.88,22.24 19.69,-18.74 66.75,-74.56 89.47,-60.62 13.42,9.29 11.54,23.62 -1.47,48.94 C 150.91,239.55 89.4,328 74.27,355.43 c -8.66,15.71 13.02,27.43 27.44,8.44 20.84,-27.45 75.11,-109.68 81.95,-118.41 13.36,-17.04 80.38,-103.74 108.28,-72.77 15.17,16.84 -39.75,94.76 -59.39,128.69 -11.61,20.05 12.66,29.9 26.73,9.5 0,0 109.13,-160.29 148.28,-145.55 23.48,8.84 -17.94,60.98 -33.85,92.8 -7.97,15.94 10.82,25.34 22.51,9.85 10.08,-13.36 34.4,-49.33 46.19,-72.92 17,-34 0.62,-67.03 -37.15,-65.65" />
        </g>
      </g>
      <rect
         class="cls-1"
         width="500"
         height="500"
         id="rect210"
         x="0"
         y="0" />
    </g>
  </g>
</svg>
