<?xml version="1.0" encoding="UTF-8" standalone="no"?>
<!DOCTYPE svg PUBLIC "-//W3C//DTD SVG 1.1//EN" "http://www.w3.org/Graphics/SVG/1.1/DTD/svg11.dtd">
<svg width="100%" height="100%" viewBox="0 0 383 186" version="1.1" xmlns="http://www.w3.org/2000/svg" xmlns:xlink="http://www.w3.org/1999/xlink" xml:space="preserve" xmlns:serif="http://www.serif.com/" style="fill-rule:evenodd;clip-rule:evenodd;stroke-linejoin:round;stroke-miterlimit:2;">
    <g transform="matrix(1,0,0,-1,0,333.453)">
        <path d="M205.664,181.414L209.191,181.414L209.191,155.398L222.367,155.398L222.367,152.039L205.664,152.039L205.664,181.414Z" style="fill:rgb(31,38,47);fill-rule:nonzero;"/>
    </g>
    <g>
        <g transform="matrix(1,0,0,-1,0,334.84)">
            <path d="M228.957,172.817L232.48,172.817L232.48,153.426L228.957,153.426L228.957,172.817ZM230.719,181.414C232.02,181.414 233.109,180.324 233.109,179.024C233.109,177.723 232.02,176.633 230.719,176.633C229.418,176.633 228.328,177.723 228.328,179.024C228.328,180.324 229.418,181.414 230.719,181.414" style="fill:rgb(31,38,47);fill-rule:nonzero;"/>
        </g>
        <g transform="matrix(1,0,0,-1,0,331.606)">
            <path d="M245.699,156.321C245.699,156.321 247.543,152.965 251.406,152.965C255.352,152.965 257.824,156.067 257.824,159.887C257.824,163.708 255.266,166.809 251.406,166.809C247.543,166.809 245.699,163.454 245.699,163.454L245.699,156.321ZM261.352,159.887C261.352,154.18 257.195,149.688 251.949,149.688C247.293,149.688 245.406,153.004 245.406,153.004L245.406,150.192L242.176,150.192L242.176,181.918L245.699,181.918L245.699,167.188C245.699,167.188 247.672,170.083 251.949,170.083C257.195,170.083 261.352,165.594 261.352,159.887" style="fill:rgb(31,38,47);fill-rule:nonzero;"/>
        </g>
        <g transform="matrix(1,0,0,-1,0,342.937)">
            <path d="M279.816,180.91L278.516,177.722C278.516,177.722 277.758,178.14 276.293,178.14C273.227,178.14 271.844,174.867 271.844,174.867L271.844,161.523L268.316,161.523L268.316,180.91L271.59,180.91L271.59,177.933C271.59,177.933 273.313,181.414 277.004,181.414C278.598,181.414 279.816,180.91 279.816,180.91" style="fill:rgb(31,38,47);fill-rule:nonzero;"/>
        </g>
        <g transform="matrix(1,0,0,-1,0,343.441)">
            <path d="M297.609,167.566L297.609,170.296C297.609,170.296 295.68,171.679 292.531,171.679C289.512,171.679 287.621,170.171 287.621,168.156C287.621,165.636 289.887,164.628 292.07,164.628C295.512,164.628 297.609,167.566 297.609,167.566M301.133,174.785L301.133,162.027L297.902,162.027L297.902,164.839C297.902,164.839 295.719,161.523 291.313,161.523C287.832,161.523 284.098,163.961 284.098,168.156C284.098,171.933 287.41,174.617 291.777,174.617C295.344,174.617 297.609,173.023 297.609,173.023L297.609,174.07C297.609,178.101 294.254,178.644 292.699,178.644C289.762,178.644 286.91,177.007 286.91,177.007L285.441,179.945C285.441,179.945 288.461,181.918 292.699,181.918C298.406,181.918 301.133,178.394 301.133,174.785" style="fill:rgb(31,38,47);fill-rule:nonzero;"/>
        </g>
        <g transform="matrix(1,0,0,-1,0,342.937)">
            <path d="M320.941,180.91L319.641,177.722C319.641,177.722 318.883,178.14 317.418,178.14C314.352,178.14 312.969,174.867 312.969,174.867L312.969,161.523L309.441,161.523L309.441,180.91L312.715,180.91L312.715,177.933C312.715,177.933 314.438,181.414 318.129,181.414C319.723,181.414 320.941,180.91 320.941,180.91" style="fill:rgb(31,38,47);fill-rule:nonzero;"/>
        </g>
        <g transform="matrix(1,0,0,-1,0,334.84)">
            <path d="M327.277,172.817L330.801,172.817L330.801,153.426L327.277,153.426L327.277,172.817ZM329.039,181.414C330.34,181.414 331.43,180.324 331.43,179.024C331.43,177.723 330.34,176.633 329.039,176.633C327.738,176.633 326.648,177.723 326.648,179.024C326.648,180.324 327.738,181.414 329.039,181.414" style="fill:rgb(31,38,47);fill-rule:nonzero;"/>
        </g>
        <g transform="matrix(1,0,0,-1,0,343.441)">
            <path d="M354.09,173.402C353.965,175.582 351.992,178.644 348.09,178.644C343.895,178.644 342.176,175.414 341.922,173.402L354.09,173.402ZM357.531,171.597C357.531,171.218 357.531,170.925 357.492,170.464L341.84,170.464C342.047,167.527 344.859,164.796 348.512,164.796C352.328,164.796 354.344,167.652 354.344,167.652L356.566,165.343C356.566,165.343 353.629,161.523 348.512,161.523C342.637,161.523 338.398,165.972 338.398,171.722C338.398,177.386 342.258,181.918 348.09,181.918C353.504,181.918 357.531,177.847 357.531,171.597" style="fill:rgb(31,38,47);fill-rule:nonzero;"/>
        </g>
        <g transform="matrix(1,0,0,-1,0,343.441)">
            <path d="M365.672,167.863C365.672,167.863 367.73,164.714 371.547,164.714C373.52,164.714 375.746,165.554 375.746,167.105C375.746,168.785 374.32,169.625 371.34,170.211C367.184,171.05 364.246,172.687 364.246,176.339C364.246,179.148 367.059,181.918 371.379,181.918C375.953,181.918 378.555,178.98 378.555,178.98L376.246,176.589C376.246,176.589 374.32,178.73 371.379,178.73C368.906,178.73 367.688,177.511 367.688,176.253C367.688,174.785 369.199,173.988 372.387,173.316C376.078,172.519 379.227,171.132 379.227,167.191C379.227,163.457 375.281,161.523 371.547,161.523C366.094,161.523 363.238,165.593 363.238,165.593L365.672,167.863Z" style="fill:rgb(31,38,47);fill-rule:nonzero;"/>
        </g>
        <g transform="matrix(0,-1,1,0,201.883,346.156)">
            <path d="M274.019,61.914C279.664,61.914 284.242,66.488 284.242,72.137C284.242,77.781 279.664,82.359 274.019,82.359C268.375,82.359 263.797,77.781 263.797,72.137C263.797,66.488 268.375,61.914 274.019,61.914" style="fill:rgb(222,29,49);fill-rule:nonzero;"/>
        </g>
        <g transform="matrix(1,0,0,-1,0,183.144)">
            <path d="M67.555,36.968L36.328,1.734L63.66,1.734L82.555,24.847C76.602,27.593 71.469,31.781 67.555,36.968M292.582,179.117C279.824,178.652 265.508,164.8 265.508,164.956C265.664,172.894 259.75,180.519 248.855,178.808C237.965,177.093 224.27,163.402 224.117,163.402C224.582,169.16 220.762,175.925 214.777,178.183C206.234,181.41 193.563,179.007 177.172,160.859C164.277,146.585 131.527,109.242 119.191,95.249C123.559,92.66 127.379,89.265 130.461,85.246L169.648,133.679C169.648,133.679 192.359,163.456 204.82,166.359C215.133,168.757 216.738,158.898 212.91,149.706C205.121,131.015 185.988,99.914 185.988,99.914C185.988,99.914 212.754,134.613 217.266,140.371C221.781,146.128 244.344,174.449 254.305,164.492C264.008,154.785 234.852,112.828 234.852,112.828L249.789,132.124C249.789,132.124 280.137,171.96 293.363,166.98C306.59,161.999 284.801,125.589 284.801,125.742C284.801,125.742 297.852,135.691 304.875,157.023C308.09,166.777 305.344,179.585 292.582,179.117" style="fill:rgb(112,122,132);fill-rule:nonzero;"/>
        </g>
        <g transform="matrix(1,0,0,-1,0,227.832)">
            <path d="M3.754,124.844C3.754,133.422 10.664,140.664 20.988,140.664C26.402,140.664 30.98,138.664 33.977,135.586C37.059,138.664 41.555,140.664 46.965,140.664C57.375,140.664 63.953,133.422 63.953,124.844L63.945,87.168L54.453,87.168L54.461,123.43C54.461,129.34 51.465,132.586 46.801,132.586C42.219,132.586 38.641,129.34 38.641,123.43L38.637,87.168L29.063,87.168L29.066,123.43C29.066,129.34 25.484,132.586 20.824,132.586C16.242,132.586 13.246,129.34 13.246,123.43L13.242,87.168L3.75,87.168L3.754,124.844Z" style="fill:rgb(31,38,47);fill-rule:nonzero;"/>
        </g>
        <g transform="matrix(1,0,0,-1,0,229.449)">
            <path d="M152.289,97.238C157.703,97.238 162.031,101.566 162.031,106.98C162.031,112.39 157.703,116.722 152.289,116.722C146.879,116.722 142.551,112.39 142.551,106.98C142.551,101.566 146.879,97.238 152.289,97.238M161.949,141.367L171.523,141.367L171.523,107.312C171.523,96.738 162.945,88.082 152.289,88.082C141.715,88.082 133.141,96.738 133.141,107.312C133.141,117.969 141.219,126.547 151.625,126.547C156.121,126.547 159.785,124.465 161.949,122.633L161.949,141.367Z" style="fill:rgb(31,38,47);fill-rule:nonzero;"/>
        </g>
        <g transform="matrix(1,0,0,-1,0,244.52)">
            <path d="M108.922,122.258C108.922,127.797 105.18,132.512 99.117,132.512C93.055,132.512 89.316,127.797 89.316,122.258C89.316,116.723 93.055,112.004 99.117,112.004C105.18,112.004 108.922,116.723 108.922,122.258M118.055,122.258C118.055,111.856 109.672,103.625 99.117,103.625C88.566,103.625 80.184,111.856 80.184,122.258C80.184,132.735 88.566,140.895 99.117,140.895C109.672,140.895 118.055,132.735 118.055,122.258" style="fill:rgb(31,38,47);fill-rule:nonzero;"/>
        </g>
        <g transform="matrix(1,0,0,-1,0,244.52)">
            <path d="M213.234,125.551C213.082,128.618 210.238,132.735 204.324,132.735C198.563,132.735 195.945,128.696 195.648,125.551L213.234,125.551ZM222.215,122.407C222.215,121.735 222.215,120.391 222.141,119.04L195.648,119.04C196.316,115.899 199.984,111.856 205.598,111.856C211.809,111.856 215.328,115.45 215.328,115.45L219.816,108.711C219.816,108.711 214.203,103.625 205.598,103.625C194.824,103.625 186.516,111.856 186.516,122.258C186.516,132.661 194.074,140.895 204.324,140.895C214.055,140.895 222.215,133.336 222.215,122.407" style="fill:rgb(31,38,47);fill-rule:nonzero;"/>
        </g>
        <g transform="matrix(1,0,0,-1,0,228.746)">
            <rect x="239.828" y="88.082" width="9.34" height="52.582" style="fill:rgb(31,38,47);"/>
        </g>
        <g transform="matrix(1,0,0,-1,0,244.52)">
            <path d="M321.879,116.344L327.793,110.36C327.793,110.36 322.703,103.625 313.125,103.625C302.5,103.625 294.043,111.856 294.043,122.258C294.043,132.735 302.5,140.895 313.125,140.895C322.633,140.895 327.645,134.305 327.645,134.305L321.434,128.77C321.434,128.77 318.516,132.512 313.125,132.512C307.063,132.512 303.172,127.797 303.172,122.258C303.172,116.723 307.063,112.004 313.125,112.004C319.188,112.004 321.879,116.344 321.879,116.344" style="fill:rgb(31,38,47);fill-rule:nonzero;"/>
        </g>
        <g transform="matrix(1,0,0,-1,0,244.32)">
            <rect x="269.125" y="103.656" width="9.414" height="37.008" style="fill:rgb(31,38,47);"/>
        </g>
        <g transform="matrix(1,0,0,-1,0,244.52)">
            <path d="M360,112.004C353.938,112.004 350.199,116.723 350.199,122.258C350.199,127.797 353.938,132.512 360,132.512C366.063,132.512 369.805,127.797 369.805,122.258C369.805,116.723 366.063,112.004 360,112.004M369.805,140.864L369.805,138.247C366.953,139.918 363.609,140.895 360,140.895C349.445,140.895 341.066,132.735 341.066,122.258C341.066,111.856 349.445,103.625 360,103.625C363.609,103.625 366.953,104.606 369.805,106.29L369.805,103.832L379.223,103.832L379.223,140.864L369.805,140.864Z" style="fill:rgb(31,38,47);fill-rule:nonzero;"/>
        </g>
    </g>
</svg>
