<?xml version="1.0" encoding="UTF-8" standalone="no"?>
<!-- Created with Inkscape (http://www.inkscape.org/) -->

<svg
   xmlns:dc="http://purl.org/dc/elements/1.1/"
   xmlns:cc="http://creativecommons.org/ns#"
   xmlns:rdf="http://www.w3.org/1999/02/22-rdf-syntax-ns#"
   xmlns:svg="http://www.w3.org/2000/svg"
   xmlns="http://www.w3.org/2000/svg"
   xmlns:sodipodi="http://sodipodi.sourceforge.net/DTD/sodipodi-0.dtd"
   xmlns:inkscape="http://www.inkscape.org/namespaces/inkscape"
   width="227.13094mm"
   height="194.59128mm"
   viewBox="0 0 227.13094 194.59128"
   version="1.1"
   id="svg8"
   inkscape:version="0.92.4 (5da689c313, 2019-01-14)"
   sodipodi:docname="Modelica_Association_Projects.svg">
  <defs
     id="defs2" />
  <sodipodi:namedview
     id="base"
     pagecolor="#ffffff"
     bordercolor="#666666"
     borderopacity="1.0"
     inkscape:pageopacity="0.0"
     inkscape:pageshadow="2"
     inkscape:zoom="1.4"
     inkscape:cx="536.04098"
     inkscape:cy="284.35761"
     inkscape:document-units="mm"
     inkscape:current-layer="layer1"
     showgrid="false"
     showguides="false"
     inkscape:guide-bbox="true"
     fit-margin-left="10"
     fit-margin-right="10"
     fit-margin-bottom="10"
     fit-margin-top="10"
     inkscape:window-width="2436"
     inkscape:window-height="1571"
     inkscape:window-x="2551"
     inkscape:window-y="-9"
     inkscape:window-maximized="1">
    <sodipodi:guide
       position="-55.438472,38.530485"
       orientation="1,0"
       id="guide673"
       inkscape:locked="false" />
    <sodipodi:guide
       position="111.48661,191.48275"
       orientation="1,0"
       id="guide675"
       inkscape:locked="false" />
    <sodipodi:guide
       position="89.154347,59.912047"
       orientation="1,0"
       id="guide677"
       inkscape:locked="false" />
    <sodipodi:guide
       position="140.18796,102.84596"
       orientation="0,1"
       id="guide679"
       inkscape:locked="false" />
    <inkscape:grid
       type="xygrid"
       id="grid681"
       originx="8.9446791"
       originy="-0.52917154" />
  </sodipodi:namedview>
  <metadata
     id="metadata5">
    <rdf:RDF>
      <cc:Work
         rdf:about="">
        <dc:format>image/svg+xml</dc:format>
        <dc:type
           rdf:resource="http://purl.org/dc/dcmitype/StillImage" />
        <dc:title></dc:title>
      </cc:Work>
    </rdf:RDF>
  </metadata>
  <g
     inkscape:label="Ebene 1"
     inkscape:groupmode="layer"
     id="layer1"
     transform="translate(2.8262858,23.966084)">
    <g
       transform="matrix(0.18683566,0,0,-0.18381028,109.01368,160.62519)"
       inkscape:label="ink_ext_XXXXXX"
       id="g18">
      <g
         transform="scale(0.1)"
         id="g20">
        <path
           inkscape:connector-curvature="0"
           id="path22"
           style="fill:#cc193a;fill-opacity:1;fill-rule:nonzero;stroke:none"
           d="M 0.00390625,3.44922 V 91.7188 L 1137.88,92.2617 l 70.26,-62.9726 70.22,62.9726 444.08,-0.5429 -0.04,-88.26958 H 0.00390625" />
        <path
           inkscape:connector-curvature="0"
           id="path24"
           style="fill:#2a3741;fill-opacity:1;fill-rule:nonzero;stroke:none"
           d="m 955.965,397.078 c -169.68,0 -307.699,138.059 -307.699,307.738 0,169.68 138.019,307.704 307.699,307.704 h 215.525 c -40.94,-41.094 -67.91,-91.825 -76.84,-109.954 l -138.646,0.586 c -109.406,0 -198.375,-88.968 -198.375,-198.336 0,-109.398 88.969,-198.375 198.336,-198.375 H 1057.3 V 397.078 H 955.965" />
        <path
           inkscape:connector-curvature="0"
           id="path26"
           style="fill:#2a3741;fill-opacity:1;fill-rule:nonzero;stroke:none"
           d="m 1424.25,906.313 c -89.32,0 -161.99,-72.676 -161.99,-162.04 v -80.394 c 0,-89.359 72.67,-162.035 161.99,-162.035 h 27.46 c 89.32,0 161.99,72.676 161.99,162.035 v 80.394 c 0,89.364 -72.67,162.04 -161.99,162.04 z m -269.4,-763.524 v 601.484 c 0,148.586 120.86,269.447 269.4,269.447 h 27.46 c 148.54,0 269.41,-120.861 269.41,-269.447 v -80.394 c 0,-148.547 -120.87,-269.41 -269.41,-269.41 h -27.46 c -51.15,0 -101.13,14.699 -144.6,42.492 l -17.39,11.113 V 142.789 l -53.73,-50.5273 -53.68,50.5273" />
        <path
           inkscape:connector-curvature="0"
           id="path28"
           style="fill:#2a3741;fill-opacity:1;fill-rule:nonzero;stroke:none"
           d="m 270.738,904.559 c -89.363,0 -162.039,-72.676 -162.039,-162.043 V 662.09 c 0,-89.328 72.676,-162.004 162.039,-162.004 h 27.41 c 89.36,0 162.036,72.676 162.036,162.004 v 80.426 c 0,89.367 -72.676,162.043 -162.036,162.043 z m 0,-511.883 C 122.191,392.676 1.32422,513.543 1.32422,662.09 v 80.426 c 0,148.55 120.86678,269.414 269.41378,269.414 h 27.41 c 51.192,0 101.176,-14.696 144.649,-42.5 l 17.387,-11.106 V 1257.17 H 567.563 V 662.09 c 0,-148.547 -120.872,-269.414 -269.415,-269.414 h -27.41" />
        <path
           inkscape:connector-curvature="0"
           id="path30"
           style="fill:#2a3741;fill-opacity:1;fill-rule:nonzero;stroke:none"
           d="m 2279.14,894.055 c 0,55.765 -33.69,101.058 -97.7,101.058 h -41.92 V 792.996 h 41.92 c 64.01,0 97.7,45.289 97.7,101.059 z m 33.68,0 c 0,-75.61 -48.28,-131.004 -129.5,-131.004 h -75.24 v 261.999 h 75.24 c 81.22,0 129.5,-55.39 129.5,-130.995" />
        <path
           inkscape:connector-curvature="0"
           id="path32"
           style="fill:#2a3741;fill-opacity:1;fill-rule:nonzero;stroke:none"
           d="m 2371.6,935.973 h 31.43 V 763.051 h -31.43 z m 15.72,76.737 c 11.6,0 21.33,-9.73 21.33,-21.339 0,-11.601 -9.73,-21.336 -21.33,-21.336 -11.6,0 -21.34,9.735 -21.34,21.336 0,11.609 9.74,21.339 21.34,21.339" />
        <path
           inkscape:connector-curvature="0"
           id="path34"
           style="fill:#2a3741;fill-opacity:1;fill-rule:nonzero;stroke:none"
           d="m 2482.02,815.074 c 0,0 18.34,-28.07 52.4,-28.07 17.6,0 37.43,7.484 37.43,21.336 0,14.973 -12.72,22.461 -39.3,27.699 -37.05,7.484 -63.26,22.086 -63.26,54.649 0,25.078 25.08,49.781 63.64,49.781 40.8,0 64,-26.203 64,-26.203 l -20.59,-21.332 c 0,0 -17.21,19.086 -43.41,19.086 -22.09,0 -32.94,-10.856 -32.94,-22.086 0,-13.098 13.47,-20.211 41.92,-26.196 32.94,-7.113 61.01,-19.468 61.01,-54.648 0,-33.317 -35.19,-50.531 -68.5,-50.531 -48.66,0 -74.11,36.308 -74.11,36.308 l 21.71,20.207" />
        <path
           inkscape:connector-curvature="0"
           id="path36"
           style="fill:#2a3741;fill-opacity:1;fill-rule:nonzero;stroke:none"
           d="m 2641.85,935.973 h 33.68 v 52.781 h 31.45 v -52.781 h 53.9 v -28.446 h -53.9 v -93.199 c 0,-16.844 8.23,-26.574 25.08,-26.574 9.72,0 19.83,7.113 19.83,7.113 l 11.61,-25.824 c -14.98,-8.238 -25.83,-10.484 -35.93,-10.484 -24.71,0 -52.04,16.093 -52.04,54.273 v 94.695 h -33.68 v 28.446" />
        <path
           inkscape:connector-curvature="0"
           id="path38"
           style="fill:#2a3741;fill-opacity:1;fill-rule:nonzero;stroke:none"
           d="m 2915.09,935.973 -11.6,-28.446 c 0,0 -6.73,3.746 -19.84,3.746 -27.32,0 -39.67,-29.195 -39.67,-29.195 V 763.051 h -31.44 v 172.922 h 29.2 v -26.571 c 0,0 15.34,31.067 48.28,31.067 14.22,0 25.07,-4.496 25.07,-4.496" />
        <path
           inkscape:connector-curvature="0"
           id="path40"
           style="fill:#2a3741;fill-opacity:1;fill-rule:nonzero;stroke:none"
           d="m 2960.39,935.973 h 31.43 V 763.051 h -31.43 z m 15.72,76.737 c 11.6,0 21.33,-9.73 21.33,-21.339 0,-11.601 -9.73,-21.336 -21.33,-21.336 -11.6,0 -21.34,9.735 -21.34,21.336 0,11.609 9.74,21.339 21.34,21.339" />
        <path
           inkscape:connector-curvature="0"
           id="path42"
           style="fill:#2a3741;fill-opacity:1;fill-rule:nonzero;stroke:none"
           d="m 3098.49,817.699 c 0,0 16.48,-29.945 50.91,-29.945 35.19,0 57.27,27.699 57.27,61.762 0,34.054 -22.83,61.757 -57.27,61.757 -34.43,0 -50.91,-29.949 -50.91,-29.949 z m 139.62,31.817 c 0,-50.911 -37.06,-90.957 -83.85,-90.957 -41.54,0 -58.38,29.57 -58.38,29.57 v -25.078 h -28.82 v 282.969 h 31.43 V 914.641 c 0,0 17.6,25.828 55.77,25.828 46.79,0 83.85,-40.051 83.85,-90.953" />
        <path
           inkscape:connector-curvature="0"
           id="path44"
           style="fill:#2a3741;fill-opacity:1;fill-rule:nonzero;stroke:none"
           d="m 3289.03,824.809 v 111.164 h 31.45 V 830.047 c 0,-29.567 18.34,-42.293 41.54,-42.293 29.2,0 43.05,28.445 43.05,28.445 v 119.774 h 31.43 V 763.051 h -29.19 v 26.578 c 0,0 -15.72,-31.07 -53.15,-31.07 -34.44,0 -65.13,23.578 -65.13,66.25" />
        <path
           inkscape:connector-curvature="0"
           id="path46"
           style="fill:#2a3741;fill-opacity:1;fill-rule:nonzero;stroke:none"
           d="m 3484.42,935.973 h 33.68 v 52.781 h 31.45 v -52.781 h 53.89 v -28.446 h -53.89 v -93.199 c 0,-16.844 8.23,-26.574 25.08,-26.574 9.72,0 19.83,7.113 19.83,7.113 l 11.61,-25.824 c -14.98,-8.238 -25.83,-10.484 -35.94,-10.484 -24.7,0 -52.03,16.093 -52.03,54.273 v 94.695 h -33.68 v 28.446" />
        <path
           inkscape:connector-curvature="0"
           id="path48"
           style="fill:#2a3741;fill-opacity:1;fill-rule:nonzero;stroke:none"
           d="m 3783.11,864.484 c -1.12,19.465 -18.71,46.789 -53.52,46.789 -37.43,0 -52.78,-28.824 -55.02,-46.789 z m 30.7,-16.093 c 0,-3.368 0,-5.993 -0.38,-10.106 h -139.61 c 1.87,-26.203 26.95,-50.531 59.52,-50.531 34.05,0 52.02,25.453 52.02,25.453 l 19.84,-20.586 c 0,0 -26.2,-34.062 -71.86,-34.062 -52.41,0 -90.22,39.675 -90.22,90.957 0,50.527 34.45,90.953 86.47,90.953 48.29,0 84.22,-36.313 84.22,-92.078" />
        <path
           inkscape:connector-curvature="0"
           id="path50"
           style="fill:#2a3741;fill-opacity:1;fill-rule:nonzero;stroke:none"
           d="m 3992.36,881.324 c 0,0 -16.47,29.949 -50.91,29.949 -34.43,0 -57.26,-27.703 -57.26,-61.757 0,-34.063 22.08,-61.762 57.26,-61.762 34.44,0 50.91,29.945 50.91,29.945 z m 0,33.317 v 131.379 h 31.44 V 763.051 h -28.82 v 25.078 c 0,0 -16.85,-29.57 -58.39,-29.57 -46.79,0 -83.84,40.046 -83.84,90.957 0,50.902 37.05,90.953 83.84,90.953 38.17,0 55.77,-25.828 55.77,-25.828" />
        <path
           inkscape:connector-curvature="0"
           id="path52"
           style="fill:#2a3741;fill-opacity:1;fill-rule:nonzero;stroke:none"
           d="m 2300.85,589.629 c 0,0 -24.33,30.695 -72.24,30.695 -56.89,0 -95.82,-49.777 -95.82,-105.551 0,-55.769 38.93,-105.554 95.82,-105.554 47.54,0 75.61,34.812 75.61,34.812 l 21.33,-21.711 c 0,0 -35.55,-43.047 -96.94,-43.047 -75.61,0 -129.51,59.895 -129.51,135.5 0,75.606 53.9,135.493 129.51,135.493 61.39,0 93.95,-40.043 93.95,-40.043 l -21.71,-20.594" />
        <path
           inkscape:connector-curvature="0"
           id="path54"
           style="fill:#2a3741;fill-opacity:1;fill-rule:nonzero;stroke:none"
           d="m 2506.73,470.23 c 0,34.067 -22.84,61.758 -57.64,61.758 -34.82,0 -57.65,-27.691 -57.65,-61.758 0,-34.058 22.83,-61.757 57.65,-61.757 34.8,0 57.64,27.699 57.64,61.757 z m 31.44,0 c 0,-50.906 -38.18,-90.957 -89.08,-90.957 -50.91,0 -89.09,40.051 -89.09,90.957 0,50.903 38.18,90.958 89.09,90.958 50.9,0 89.08,-40.055 89.08,-90.958" />
        <path
           inkscape:connector-curvature="0"
           id="path56"
           style="fill:#2a3741;fill-opacity:1;fill-rule:nonzero;stroke:none"
           d="m 2577.48,490.066 h 99.93 v -29.941 h -99.93 v 29.941" />
        <path
           inkscape:connector-curvature="0"
           id="path58"
           style="fill:#2a3741;fill-opacity:1;fill-rule:nonzero;stroke:none"
           d="m 2805.06,501.668 c -38.19,17.598 -71.87,35.184 -71.87,79.727 0,30.695 25.45,68.871 75.61,68.871 49.41,0 74.49,-38.176 74.49,-38.176 l -23.59,-19.094 c 0,0 -18.34,27.328 -50.9,27.328 -28.82,0 -44.17,-20.211 -44.17,-38.929 0,-26.575 22.46,-37.051 58.39,-53.528 40.05,-18.34 65.13,-35.183 65.13,-77.48 0,-42.664 -35.18,-71.114 -81.22,-71.114 -62.14,0 -83.48,54.653 -83.48,54.653 l 26.21,15.719 c 0,0 15.72,-40.426 57.27,-40.426 25.08,0 49.03,14.226 49.03,41.168 0,27.328 -21.7,37.812 -50.9,51.281" />
        <path
           inkscape:connector-curvature="0"
           id="path60"
           style="fill:#2a3741;fill-opacity:1;fill-rule:nonzero;stroke:none"
           d="m 2952.17,556.695 h 31.43 V 383.766 h -31.43 z m 15.72,76.731 c 11.6,0 21.33,-9.731 21.33,-21.336 0,-11.606 -9.73,-21.34 -21.33,-21.34 -11.6,0 -21.34,9.734 -21.34,21.34 0,11.605 9.74,21.336 21.34,21.336" />
        <path
           inkscape:connector-curvature="0"
           id="path62"
           style="fill:#2a3741;fill-opacity:1;fill-rule:nonzero;stroke:none"
           d="M 3294.65,494.93 V 383.766 h -31.45 v 106.3 c 0,28.075 -14.6,41.922 -37.05,41.922 -25.83,0 -37.06,-27.691 -37.06,-27.691 V 383.766 h -31.44 v 106.3 c 0,28.075 -14.6,41.922 -37.06,41.922 -25.45,0 -37.05,-27.691 -37.05,-27.691 V 383.766 h -31.44 v 172.929 h 29.2 v -25.457 c 0,0 12.72,29.95 47.91,29.95 43.03,0 53.89,-32.196 53.89,-32.196 0,0 13.85,32.196 51.65,32.196 35.94,0 59.9,-23.583 59.9,-66.258" />
        <path
           inkscape:connector-curvature="0"
           id="path64"
           style="fill:#2a3741;fill-opacity:1;fill-rule:nonzero;stroke:none"
           d="m 3357.54,445.523 v 111.172 h 31.44 V 450.77 c 0,-29.571 18.34,-42.297 41.54,-42.297 29.2,0 43.05,28.449 43.05,28.449 v 119.773 h 31.44 V 383.766 h -29.19 v 26.574 c 0,0 -15.73,-31.067 -53.16,-31.067 -34.43,0 -65.12,23.586 -65.12,66.25" />
        <path
           inkscape:connector-curvature="0"
           id="path66"
           style="fill:#2a3741;fill-opacity:1;fill-rule:nonzero;stroke:none"
           d="m 3574.64,666.734 h 31.43 V 383.766 h -31.43 v 282.968" />
        <path
           inkscape:connector-curvature="0"
           id="path68"
           style="fill:#2a3741;fill-opacity:1;fill-rule:nonzero;stroke:none"
           d="m 3787.99,433.172 v 24.336 c 0,0 -17.22,12.344 -45.29,12.344 -26.95,0 -43.8,-13.465 -43.8,-31.434 0,-22.461 20.22,-31.449 39.68,-31.449 30.69,0 49.41,26.203 49.41,26.203 z m 31.44,64.383 V 383.766 h -28.82 v 25.078 c 0,0 -19.46,-29.571 -58.77,-29.571 -31.06,0 -64.37,21.711 -64.37,59.145 0,33.68 29.57,57.637 68.49,57.637 31.82,0 52.03,-14.219 52.03,-14.219 v 9.352 c 0,35.941 -29.95,40.8 -43.79,40.8 -26.2,0 -51.65,-14.597 -51.65,-14.597 l -13.11,26.203 c 0,0 26.95,17.594 64.76,17.594 50.9,0 75.23,-31.446 75.23,-63.633" />
        <path
           inkscape:connector-curvature="0"
           id="path70"
           style="fill:#2a3741;fill-opacity:1;fill-rule:nonzero;stroke:none"
           d="m 3867.35,556.695 h 33.68 v 52.774 h 31.45 v -52.774 h 53.89 V 528.25 h -53.89 v -93.203 c 0,-16.848 8.23,-26.574 25.08,-26.574 9.72,0 19.83,7.113 19.83,7.113 L 3989,389.754 c -14.98,-8.234 -25.83,-10.481 -35.94,-10.481 -24.7,0 -52.03,16.094 -52.03,54.282 v 94.695 h -33.68 v 28.445" />
        <path
           inkscape:connector-curvature="0"
           id="path72"
           style="fill:#2a3741;fill-opacity:1;fill-rule:nonzero;stroke:none"
           d="m 4043.65,556.695 h 31.44 V 383.766 h -31.44 z m 15.72,76.731 c 11.6,0 21.33,-9.731 21.33,-21.336 0,-11.606 -9.73,-21.34 -21.33,-21.34 -11.6,0 -21.34,9.734 -21.34,21.34 0,11.605 9.74,21.336 21.34,21.336" />
        <path
           inkscape:connector-curvature="0"
           id="path74"
           style="fill:#2a3741;fill-opacity:1;fill-rule:nonzero;stroke:none"
           d="m 4278.33,470.23 c 0,34.067 -22.83,61.758 -57.64,61.758 -34.81,0 -57.65,-27.691 -57.65,-61.758 0,-34.058 22.84,-61.757 57.65,-61.757 34.81,0 57.64,27.699 57.64,61.757 z m 31.44,0 c 0,-50.906 -38.18,-90.957 -89.08,-90.957 -50.91,0 -89.09,40.051 -89.09,90.957 0,50.903 38.18,90.958 89.09,90.958 50.9,0 89.08,-40.055 89.08,-90.958" />
        <path
           inkscape:connector-curvature="0"
           id="path76"
           style="fill:#2a3741;fill-opacity:1;fill-rule:nonzero;stroke:none"
           d="M 4508.15,494.93 V 383.766 h -31.43 v 105.929 c 0,29.571 -18.34,42.293 -41.56,42.293 -28.06,0 -43.03,-29.195 -43.03,-29.195 V 383.766 h -31.45 v 172.929 h 29.2 v -24.336 c 0,0 15.71,28.829 53.14,28.829 34.44,0 65.13,-23.583 65.13,-66.258" />
        <path
           inkscape:connector-curvature="0"
           id="path78"
           style="fill:#2a3741;fill-opacity:1;fill-rule:nonzero;stroke:none"
           d="m 2188.94,138.48 c 35.56,0 59.89,15.731 59.89,49.04 0,33.32 -24.33,49.031 -59.89,49.031 H 2154.5 V 138.48 Z m -65.88,128.024 h 67.75 c 54.65,0 89.46,-28.832 89.46,-78.984 0,-50.161 -34.81,-78.981 -89.46,-78.981 H 2154.5 V 4.48828 h -31.44 V 266.504" />
        <path
           inkscape:connector-curvature="0"
           id="path80"
           style="fill:#2a3741;fill-opacity:1;fill-rule:nonzero;stroke:none"
           d="m 2431.49,177.422 -11.6,-28.453 c 0,0 -6.74,3.742 -19.84,3.742 -27.33,0 -39.67,-29.199 -39.67,-29.199 V 4.48828 h -31.45 V 177.422 h 29.2 V 150.84 c 0,0 15.34,31.07 48.28,31.07 14.22,0 25.08,-4.488 25.08,-4.488" />
        <path
           inkscape:connector-curvature="0"
           id="path82"
           style="fill:#2a3741;fill-opacity:1;fill-rule:nonzero;stroke:none"
           d="m 2599.94,90.9492 c 0,34.0708 -22.83,61.7618 -57.64,61.7618 -34.81,0 -57.64,-27.691 -57.64,-61.7618 0,-34.0586 22.83,-61.75 57.64,-61.75 34.81,0 57.64,27.6914 57.64,61.75 z m 31.44,0 C 2631.38,40.0508 2593.2,0 2542.3,0 c -50.91,0 -89.08,40.0508 -89.08,90.9492 0,50.9028 38.17,90.9608 89.08,90.9608 50.9,0 89.08,-40.058 89.08,-90.9608" />
        <path
           inkscape:connector-curvature="0"
           id="path84"
           style="fill:#2a3741;fill-opacity:1;fill-rule:nonzero;stroke:none"
           d="M 2667.32,177.422 H 2701 v 52.769 h 31.45 v -52.769 h 53.89 v -28.453 h -53.89 V 55.7695 c 0,-16.8476 8.23,-26.5703 25.08,-26.5703 9.72,0 19.83,7.1094 19.83,7.1094 l 11.61,-25.8281 C 2773.99,2.23828 2763.14,0 2753.03,0 2728.33,0 2701,16.0898 2701,54.2813 v 94.6877 h -33.68 v 28.453" />
        <path
           inkscape:connector-curvature="0"
           id="path86"
           style="fill:#2a3741;fill-opacity:1;fill-rule:nonzero;stroke:none"
           d="m 2972.75,90.9492 c 0,34.0708 -22.83,61.7618 -57.64,61.7618 -34.81,0 -57.64,-27.691 -57.64,-61.7618 0,-34.0586 22.83,-61.75 57.64,-61.75 34.81,0 57.64,27.6914 57.64,61.75 z m 31.45,0 C 3004.2,40.0508 2966.01,0 2915.11,0 c -50.9,0 -89.08,40.0508 -89.08,90.9492 0,50.9028 38.18,90.9608 89.08,90.9608 50.9,0 89.09,-40.058 89.09,-90.9608" />
        <path
           inkscape:connector-curvature="0"
           id="path88"
           style="fill:#2a3741;fill-opacity:1;fill-rule:nonzero;stroke:none"
           d="m 3202.96,33.3086 c 0,0 -25.08,-33.3086 -70.75,-33.3086 -50.9,0 -89.09,40.0508 -89.09,90.9492 0,50.5308 38.19,90.9608 89.09,90.9608 44.16,0 68.87,-31.07 68.87,-31.07 l -21.34,-19.078 c 0,0 -16.83,20.949 -47.53,20.949 -34.81,0 -57.64,-27.691 -57.64,-61.7618 0,-34.0586 22.83,-61.75 57.64,-61.75 33.69,0 50.53,24.6914 50.53,24.6914 l 20.22,-20.582" />
        <path
           inkscape:connector-curvature="0"
           id="path90"
           style="fill:#2a3741;fill-opacity:1;fill-rule:nonzero;stroke:none"
           d="m 3383.37,90.9492 c 0,34.0708 -22.84,61.7618 -57.64,61.7618 -34.81,0 -57.65,-27.691 -57.65,-61.7618 0,-34.0586 22.84,-61.75 57.65,-61.75 34.8,0 57.64,27.6914 57.64,61.75 z m 31.44,0 C 3414.81,40.0508 3376.63,0 3325.73,0 c -50.91,0 -89.09,40.0508 -89.09,90.9492 0,50.9028 38.18,90.9608 89.09,90.9608 50.9,0 89.08,-40.058 89.08,-90.9608" />
        <path
           inkscape:connector-curvature="0"
           id="path92"
           style="fill:#2a3741;fill-opacity:1;fill-rule:nonzero;stroke:none"
           d="m 3472.47,287.461 h 31.43 V 4.48828 h -31.43 V 287.461" />
      </g>
    </g>
    <g
       transform="matrix(0.18683566,0,0,-0.18381028,108.93588,84.425407)"
       inkscape:label="ink_ext_XXXXXX"
       id="g140">
      <g
         transform="scale(0.1)"
         id="g142">
        <path
           inkscape:connector-curvature="0"
           id="path144"
           style="fill:#cc193a;fill-opacity:1;fill-rule:nonzero;stroke:none"
           d="M 0,3.35156 V 91.0313 l 189.609,-0.043 69.133,-59.8672 72.348,59.8672 H 1691.33 V 3.35156 H 0" />
        <path
           inkscape:connector-curvature="0"
           id="path146"
           style="fill:#2a3741;fill-opacity:1;fill-rule:nonzero;stroke:none"
           d="m 1310.81,390.066 v 367.012 c 0,64.961 -32.94,111.863 -97.94,139.414 -19.78,4.629 -33.75,6.543 -44.61,6.543 -57.58,0 -101.92,-29.496 -131.84,-87.73 -7.69,-19.703 -11.32,-43.27 -11.32,-71.082 l 0.8,-354.157 H 917.781 l -0.84,374.317 c 0,67.031 -35.886,138.652 -136.699,138.652 -120.242,0 -147.293,-103.57 -147.293,-139.84 V 390.066 H 524.828 l 0.574,364.297 c 0,163.168 91.168,256.747 250.133,256.747 72.16,0 135.477,-28.731 188.235,-85.352 l 8.226,-8.836 8.109,8.949 c 52.225,57.586 116.995,86.809 192.515,86.809 243.52,0 246.31,-233.946 246.31,-243.899 V 390.066 h -108.12" />
        <path
           inkscape:connector-curvature="0"
           id="path148"
           style="fill:#2a3741;fill-opacity:1;fill-rule:nonzero;stroke:none"
           d="m 1581.64,390.066 v 364.868 h 109.54 V 390.066 h -109.54" />
        <path
           inkscape:connector-curvature="0"
           id="path150"
           style="fill:#2a3741;fill-opacity:1;fill-rule:nonzero;stroke:none"
           d="m 1581.83,852.262 v 139.722 h 109.54 V 852.262 h -109.54" />
        <path
           inkscape:connector-curvature="0"
           id="path152"
           style="fill:#2a3741;fill-opacity:1;fill-rule:nonzero;stroke:none"
           d="M 207.094,133.539 V 903.035 H 4.16797 L 6.27344,1011.11 H 207.094 v 70.97 c 0,80 29.726,148.63 88.301,204 21.5,16.3 45.566,29.69 70.625,39.06 28.769,8.88 62.324,13.58 99.125,13.81 v -108.16 c -70.317,-0.65 -115.766,-26.55 -135.165,-77.01 -9.796,-25.79 -14.734,-49.89 -14.734,-71.7 v -70.97 H 525.402 C 484.617,973.352 462.012,922.238 454.551,903.035 H 315.246 V 133.77 L 259.047,88.6211 207.094,133.539" />
        <path
           inkscape:connector-curvature="0"
           id="path154"
           style="fill:#2a3741;fill-opacity:1;fill-rule:nonzero;stroke:none"
           d="M 2113.72,895.297 H 2220.6 V 865.91 H 2113.72 V 748.754 h -30.85 v 257.096 h 145.08 v -29.381 h -114.23 v -81.172" />
        <path
           inkscape:connector-curvature="0"
           id="path156"
           style="fill:#2a3741;fill-opacity:1;fill-rule:nonzero;stroke:none"
           d="m 2283.05,809.359 v 109.075 h 30.85 V 814.496 c 0,-29.016 18,-41.504 40.77,-41.504 28.64,0 42.24,27.918 42.24,27.918 v 117.524 h 30.85 v -169.68 h -28.65 v 26.074 c 0,0 -15.42,-30.48 -52.15,-30.48 -33.79,0 -63.91,23.136 -63.91,65.011" />
        <path
           inkscape:connector-curvature="0"
           id="path158"
           style="fill:#2a3741;fill-opacity:1;fill-rule:nonzero;stroke:none"
           d="M 2634.18,857.836 V 748.754 h -30.85 v 103.934 c 0,29.023 -17.99,41.507 -40.77,41.507 -27.54,0 -42.23,-28.644 -42.23,-28.644 V 748.754 h -30.85 v 169.68 h 28.65 v -23.871 c 0,0 15.42,28.281 52.15,28.281 33.79,0 63.9,-23.137 63.9,-65.008" />
        <path
           inkscape:connector-curvature="0"
           id="path160"
           style="fill:#2a3741;fill-opacity:1;fill-rule:nonzero;stroke:none"
           d="m 2840.98,777.035 c 0,0 -24.61,-32.687 -69.41,-32.687 -49.96,0 -87.43,39.297 -87.43,89.25 0,49.578 37.47,89.246 87.43,89.246 43.33,0 67.57,-30.489 67.57,-30.489 l -20.93,-18.73 c 0,0 -16.53,20.57 -46.64,20.57 -34.16,0 -56.57,-27.179 -56.57,-60.597 0,-33.43 22.41,-60.606 56.57,-60.606 33.04,0 49.58,24.238 49.58,24.238 l 19.83,-20.195" />
        <path
           inkscape:connector-curvature="0"
           id="path162"
           style="fill:#2a3741;fill-opacity:1;fill-rule:nonzero;stroke:none"
           d="m 2871.11,918.434 h 33.04 v 51.789 h 30.86 v -51.789 h 52.88 V 890.52 h -52.88 v -91.454 c 0,-16.523 8.08,-26.074 24.6,-26.074 9.55,0 19.48,6.981 19.48,6.981 l 11.38,-25.34 c -14.69,-8.086 -25.34,-10.285 -35.26,-10.285 -24.24,0 -51.06,15.793 -51.06,53.254 v 92.918 h -33.04 v 27.914" />
        <path
           inkscape:connector-curvature="0"
           id="path164"
           style="fill:#2a3741;fill-opacity:1;fill-rule:nonzero;stroke:none"
           d="m 3044.1,918.434 h 30.85 v -169.68 h -30.85 z m 15.43,75.293 c 11.38,0 20.92,-9.551 20.92,-20.934 0,-11.383 -9.54,-20.934 -20.92,-20.934 -11.39,0 -20.94,9.551 -20.94,20.934 0,11.383 9.55,20.934 20.94,20.934" />
        <path
           inkscape:connector-curvature="0"
           id="path166"
           style="fill:#2a3741;fill-opacity:1;fill-rule:nonzero;stroke:none"
           d="m 3274.38,833.598 c 0,33.418 -22.4,60.597 -56.55,60.597 -34.16,0 -56.57,-27.179 -56.57,-60.597 0,-33.43 22.41,-60.606 56.57,-60.606 34.15,0 56.55,27.176 56.55,60.606 z m 30.86,0 c 0,-49.953 -37.47,-89.25 -87.41,-89.25 -49.96,0 -87.42,39.297 -87.42,89.25 0,49.949 37.46,89.246 87.42,89.246 49.94,0 87.41,-39.297 87.41,-89.246" />
        <path
           inkscape:connector-curvature="0"
           id="path168"
           style="fill:#2a3741;fill-opacity:1;fill-rule:nonzero;stroke:none"
           d="M 3499.91,857.836 V 748.754 h -30.85 v 103.934 c 0,29.023 -18,41.507 -40.78,41.507 -27.53,0 -42.23,-28.644 -42.23,-28.644 V 748.754 h -30.85 v 169.68 h 28.65 v -23.871 c 0,0 15.42,28.281 52.15,28.281 33.79,0 63.91,-23.137 63.91,-65.008" />
        <path
           inkscape:connector-curvature="0"
           id="path170"
           style="fill:#2a3741;fill-opacity:1;fill-rule:nonzero;stroke:none"
           d="m 3671.81,797.23 v 23.875 c 0,0 -16.89,12.122 -44.44,12.122 -26.45,0 -42.97,-13.223 -42.97,-30.852 0,-22.039 19.83,-30.848 38.92,-30.848 30.12,0 48.49,25.703 48.49,25.703 z m 30.85,63.172 V 748.754 h -28.28 v 24.609 c 0,0 -19.1,-29.015 -57.67,-29.015 -30.48,0 -63.16,21.3 -63.16,58.027 0,33.059 29.01,56.563 67.21,56.563 31.22,0 51.05,-13.954 51.05,-13.954 v 9.18 c 0,35.254 -29.38,40.031 -42.97,40.031 -25.71,0 -50.69,-14.32 -50.69,-14.32 l -12.85,25.703 c 0,0 26.44,17.266 63.54,17.266 49.94,0 73.82,-30.848 73.82,-62.442" />
        <path
           inkscape:connector-curvature="0"
           id="path172"
           style="fill:#2a3741;fill-opacity:1;fill-rule:nonzero;stroke:none"
           d="m 3770.98,1026.41 h 30.85 V 748.754 h -30.85 v 277.656" />
        <path
           inkscape:connector-curvature="0"
           id="path174"
           style="fill:#2a3741;fill-opacity:1;fill-rule:nonzero;stroke:none"
           d="m 2113.72,633.676 88.52,-143.61 88.14,143.61 h 29.76 V 376.582 h -30.86 v 201.266 l -87.77,-142.871 -87.79,142.5 V 376.582 h -30.85 v 257.094 h 30.85" />
        <path
           inkscape:connector-curvature="0"
           id="path176"
           style="fill:#2a3741;fill-opacity:1;fill-rule:nonzero;stroke:none"
           d="m 2520.69,461.422 c 0,33.418 -22.41,60.598 -56.56,60.598 -34.16,0 -56.56,-27.18 -56.56,-60.598 0,-33.426 22.4,-60.606 56.56,-60.606 34.15,0 56.56,27.18 56.56,60.606 z m 30.86,0 c 0,-49.949 -37.47,-89.246 -87.42,-89.246 -49.95,0 -87.41,39.297 -87.41,89.246 0,49.953 37.46,89.25 87.41,89.25 49.95,0 87.42,-39.297 87.42,-89.25" />
        <path
           inkscape:connector-curvature="0"
           id="path178"
           style="fill:#2a3741;fill-opacity:1;fill-rule:nonzero;stroke:none"
           d="m 2746.59,404.859 c 0,0 -24.61,-32.683 -69.42,-32.683 -49.95,0 -87.42,39.297 -87.42,89.246 0,49.582 37.47,89.25 87.42,89.25 43.33,0 67.58,-30.488 67.58,-30.488 l -20.94,-18.731 c 0,0 -16.52,20.567 -46.64,20.567 -34.16,0 -56.56,-27.18 -56.56,-60.598 0,-33.426 22.4,-60.606 56.56,-60.606 33.05,0 49.58,24.239 49.58,24.239 l 19.84,-20.196" />
        <path
           inkscape:connector-curvature="0"
           id="path180"
           style="fill:#2a3741;fill-opacity:1;fill-rule:nonzero;stroke:none"
           d="m 2828.86,458.855 v -82.273 h -30.85 v 277.66 h 30.85 V 470.973 l 72.73,75.293 h 40.4 l -79.34,-80.067 85.95,-89.617 h -42.97 l -76.77,82.273" />
        <path
           inkscape:connector-curvature="0"
           id="path182"
           style="fill:#2a3741;fill-opacity:1;fill-rule:nonzero;stroke:none"
           d="m 2976.16,480.887 h 98.06 v -29.383 h -98.06 v 29.383" />
        <path
           inkscape:connector-curvature="0"
           id="path184"
           style="fill:#2a3741;fill-opacity:1;fill-rule:nonzero;stroke:none"
           d="m 3287.62,633.676 h 30.85 v -162.34 c 0,-58.398 -34.89,-99.16 -93.66,-99.16 -58.76,0 -93.65,40.762 -93.65,99.16 v 162.34 h 30.85 c 0,0 0,-74.196 0,-159.031 0,-41.504 18.36,-73.094 62.8,-73.094 44.44,0 62.81,31.59 62.81,73.094 0,84.835 0,159.031 0,159.031" />
        <path
           inkscape:connector-curvature="0"
           id="path186"
           style="fill:#2a3741;fill-opacity:1;fill-rule:nonzero;stroke:none"
           d="m 3417.65,429.832 c 0,0 16.16,-29.016 49.95,-29.016 34.52,0 56.19,27.18 56.19,60.606 0,33.418 -21.67,60.598 -56.19,60.598 -33.79,0 -49.95,-29.016 -49.95,-29.016 z m -2.57,116.434 v -24.61 c 0,0 16.9,29.016 57.3,29.016 45.9,0 82.26,-39.297 82.26,-89.25 0,-49.949 -36.36,-89.246 -82.26,-89.246 -31.22,0 -48.85,17.625 -54.73,25.34 V 292.109 h -30.85 v 254.157 h 28.28" />
        <path
           inkscape:connector-curvature="0"
           id="path188"
           style="fill:#2a3741;fill-opacity:1;fill-rule:nonzero;stroke:none"
           d="m 2088.01,261.5 h 30.86 V 4.39844 h -30.86 V 261.5" />
        <path
           inkscape:connector-curvature="0"
           id="path190"
           style="fill:#2a3741;fill-opacity:1;fill-rule:nonzero;stroke:none"
           d="M 2337.03,113.48 V 4.39844 h -30.84 V 108.34 c 0,29.019 -18,41.5 -40.78,41.5 -27.54,0 -42.23,-28.641 -42.23,-28.641 V 4.39844 h -30.85 V 174.09 h 28.65 v -23.879 c 0,0 15.42,28.277 52.15,28.277 33.79,0 63.9,-23.136 63.9,-65.008" />
        <path
           inkscape:connector-curvature="0"
           id="path192"
           style="fill:#2a3741;fill-opacity:1;fill-rule:nonzero;stroke:none"
           d="m 2384.06,174.09 h 33.04 v 51.781 h 30.86 V 174.09 h 52.88 v -27.918 h -52.88 V 54.7109 c 0,-16.5195 8.08,-26.0703 24.6,-26.0703 9.55,0 19.47,6.9805 19.47,6.9805 l 11.39,-25.3398 C 2488.72,2.19141 2478.08,0 2468.16,0 2443.92,0 2417.1,15.7891 2417.1,53.25 v 92.922 h -33.04 v 27.918" />
        <path
           inkscape:connector-curvature="0"
           id="path194"
           style="fill:#2a3741;fill-opacity:1;fill-rule:nonzero;stroke:none"
           d="m 2677.15,103.93 c -1.09,19.101 -18.36,45.91 -52.52,45.91 -36.73,0 -51.78,-28.281 -53.98,-45.91 z m 30.12,-15.7894 c 0,-3.3086 0,-5.8789 -0.36,-9.9218 h -137 c 1.84,-25.6993 26.44,-49.5782 58.39,-49.5782 33.43,0 51.06,24.9805 51.06,24.9805 l 19.46,-20.1992 c 0,0 -25.7,-33.4219 -70.52,-33.4219 -51.41,0 -88.51,38.9219 -88.51,89.25 0,49.582 33.8,89.238 84.84,89.238 47.39,0 82.64,-35.617 82.64,-90.3474" />
        <path
           inkscape:connector-curvature="0"
           id="path196"
           style="fill:#2a3741;fill-opacity:1;fill-rule:nonzero;stroke:none"
           d="m 2857.86,174.09 -11.38,-27.918 c 0,0 -6.61,3.668 -19.46,3.668 -26.82,0 -38.94,-28.641 -38.94,-28.641 V 4.39844 h -30.85 V 174.09 h 28.65 v -26.078 c 0,0 15.06,30.476 47.38,30.476 13.95,0 24.6,-4.398 24.6,-4.398" />
        <path
           inkscape:connector-curvature="0"
           id="path198"
           style="fill:#2a3741;fill-opacity:1;fill-rule:nonzero;stroke:none"
           d="m 2880.65,174.09 h 35.26 v 58.39 c 0,35.989 27.91,53.989 52.15,53.989 9.92,0 20.94,-1.828 35.63,-9.91 l -11.39,-25.34 c 0,0 -10.28,6.601 -19.83,6.601 -16.53,0 -25.71,-10.64 -25.71,-27.179 V 174.09 h 44.07 v -27.918 h -44.07 V 4.39844 h -30.85 V 146.172 h -35.26 v 27.918" />
        <path
           inkscape:connector-curvature="0"
           id="path200"
           style="fill:#2a3741;fill-opacity:1;fill-rule:nonzero;stroke:none"
           d="m 3144.73,52.8789 v 23.8828 c 0,0 -16.89,12.1094 -44.44,12.1094 -26.45,0 -42.97,-13.2227 -42.97,-30.8398 0,-22.0508 19.83,-30.8516 38.92,-30.8516 30.12,0 48.49,25.6992 48.49,25.6992 z m 30.85,63.1721 V 4.39844 H 3147.3 V 29.0117 c 0,0 -19.1,-29.0117 -57.67,-29.0117 -30.48,0 -63.16,21.3008 -63.16,58.0313 0,33.0507 29.01,56.5587 67.21,56.5587 31.22,0 51.05,-13.961 51.05,-13.961 v 9.18 c 0,35.261 -29.38,40.031 -42.97,40.031 -25.71,0 -50.69,-14.309 -50.69,-14.309 l -12.85,25.699 c 0,0 26.44,17.258 63.54,17.258 49.94,0 73.82,-30.847 73.82,-62.437" />
        <path
           inkscape:connector-curvature="0"
           id="path202"
           style="fill:#2a3741;fill-opacity:1;fill-rule:nonzero;stroke:none"
           d="m 3382.38,32.6797 c 0,0 -24.61,-32.6797 -69.42,-32.6797 -49.95,0 -87.41,39.2891 -87.41,89.25 0,49.582 37.46,89.238 87.41,89.238 43.33,0 67.58,-30.476 67.58,-30.476 l -20.94,-18.731 c 0,0 -16.53,20.559 -46.64,20.559 -34.16,0 -56.56,-27.18 -56.56,-60.59 0,-33.4297 22.4,-60.6094 56.56,-60.6094 33.05,0 49.58,24.2383 49.58,24.2383 l 19.84,-20.1992" />
        <path
           inkscape:connector-curvature="0"
           id="path204"
           style="fill:#2a3741;fill-opacity:1;fill-rule:nonzero;stroke:none"
           d="m 3552.8,103.93 c -1.1,19.101 -18.36,45.91 -52.52,45.91 -36.73,0 -51.79,-28.281 -53.99,-45.91 z m 30.11,-15.7894 c 0,-3.3086 0,-5.8789 -0.36,-9.9218 h -137 c 1.85,-25.6993 26.45,-49.5782 58.4,-49.5782 33.43,0 51.05,24.9805 51.05,24.9805 l 19.47,-20.1992 c 0,0 -25.71,-33.4219 -70.52,-33.4219 -51.42,0 -88.52,38.9219 -88.52,89.25 0,49.582 33.8,89.238 84.85,89.238 47.38,0 82.63,-35.617 82.63,-90.3474" />
      </g>
    </g>
    <g
       transform="matrix(0.19400621,0,0,-0.19086471,13.484312,150.27729)"
       inkscape:label="ink_ext_XXXXXX"
       id="g343">
      <g
         transform="scale(0.1)"
         id="g345">
        <path
           inkscape:connector-curvature="0"
           id="path347"
           style="fill:#1f262f;fill-opacity:1;fill-rule:nonzero;stroke:none"
           d="m 2019.16,298.77 h 35.25 V 38.6016 h 131.76 V 5.03906 H 2019.16 V 298.77" />
        <path
           inkscape:connector-curvature="0"
           id="path349"
           style="fill:#1f262f;fill-opacity:1;fill-rule:nonzero;stroke:none"
           d="m 2252.07,198.898 h 35.24 V 5.03906 h -35.24 z m 17.61,86.024 c 13.01,0 23.92,-10.91 23.92,-23.922 0,-13 -10.91,-23.91 -23.92,-23.91 -13,0 -23.91,10.91 -23.91,23.91 0,13.012 10.91,23.922 23.91,23.922" />
        <path
           inkscape:connector-curvature="0"
           id="path351"
           style="fill:#1f262f;fill-opacity:1;fill-rule:nonzero;stroke:none"
           d="m 2419.49,66.3008 c 0,0 18.46,-33.5703 57.07,-33.5703 39.44,0 64.2,31.0586 64.2,69.2385 0,38.179 -25.6,69.242 -64.2,69.242 -38.61,0 -57.07,-33.582 -57.07,-33.582 z M 2576,101.969 C 2576,44.8984 2534.46,0 2482.01,0 c -46.57,0 -65.46,33.1484 -65.46,33.1484 V 5.03906 h -32.31 V 322.262 h 35.25 V 174.98 c 0,0 19.72,28.95 62.52,28.95 52.45,0 93.99,-44.891 93.99,-101.961" />
        <path
           inkscape:connector-curvature="0"
           id="path353"
           style="fill:#1f262f;fill-opacity:1;fill-rule:nonzero;stroke:none"
           d="m 2760.65,198.898 -13.01,-31.886 c 0,0 -7.55,4.199 -22.23,4.199 -30.64,0 -44.49,-32.742 -44.49,-32.742 V 5.03906 h -35.24 V 198.898 h 32.74 v -29.789 c 0,0 17.19,34.821 54.13,34.821 15.93,0 28.1,-5.032 28.1,-5.032" />
        <path
           inkscape:connector-curvature="0"
           id="path355"
           style="fill:#1f262f;fill-opacity:1;fill-rule:nonzero;stroke:none"
           d="m 2938.59,60.4297 v 27.2695 c 0,0 -19.31,13.8518 -50.78,13.8518 -30.21,0 -49.09,-15.1096 -49.09,-35.2502 0,-25.1797 22.65,-35.25 44.48,-35.25 34.4,0 55.39,29.3789 55.39,29.3789 z m 35.25,72.1793 V 5.03906 h -32.32 V 33.1484 c 0,0 -21.82,-33.1484 -65.88,-33.1484 -34.82,0 -72.17,24.3398 -72.17,66.3008 0,37.7692 33.15,64.6292 76.79,64.6292 35.66,0 58.33,-15.95 58.33,-15.95 v 10.489 c 0,40.281 -33.57,45.742 -49.1,45.742 -29.38,0 -57.9,-16.371 -57.9,-16.371 l -14.69,29.379 c 0,0 30.21,19.711 72.59,19.711 57.07,0 84.35,-35.239 84.35,-71.321" />
        <path
           inkscape:connector-curvature="0"
           id="path357"
           style="fill:#1f262f;fill-opacity:1;fill-rule:nonzero;stroke:none"
           d="m 3171.9,198.898 -13.01,-31.886 c 0,0 -7.55,4.199 -22.23,4.199 -30.64,0 -44.49,-32.742 -44.49,-32.742 V 5.03906 h -35.24 V 198.898 h 32.74 v -29.789 c 0,0 17.19,34.821 54.13,34.821 15.93,0 28.1,-5.032 28.1,-5.032" />
        <path
           inkscape:connector-curvature="0"
           id="path359"
           style="fill:#1f262f;fill-opacity:1;fill-rule:nonzero;stroke:none"
           d="m 3235.28,198.898 h 35.24 V 5.03906 h -35.24 z m 17.62,86.024 c 13.01,0 23.91,-10.91 23.91,-23.922 0,-13 -10.9,-23.91 -23.91,-23.91 -13.01,0 -23.92,10.91 -23.92,23.91 0,13.012 10.91,23.922 23.92,23.922" />
        <path
           inkscape:connector-curvature="0"
           id="path361"
           style="fill:#1f262f;fill-opacity:1;fill-rule:nonzero;stroke:none"
           d="m 3503.42,118.762 c -1.26,21.808 -20.98,52.449 -60,52.449 -41.97,0 -59.17,-32.32 -61.69,-52.449 z m 34.41,-18.051 c 0,-3.7813 0,-6.7227 -0.42,-11.3321 h -156.52 c 2.1,-29.3672 30.21,-56.6484 66.71,-56.6484 38.2,0 58.33,28.539 58.33,28.539 l 22.24,-23.0781 c 0,0 -29.36,-38.1914 -80.57,-38.1914 -58.74,0 -101.12,44.4805 -101.12,101.969 0,56.652 38.61,101.961 96.94,101.961 54.13,0 94.41,-40.7 94.41,-103.219" />
        <path
           inkscape:connector-curvature="0"
           id="path363"
           style="fill:#1f262f;fill-opacity:1;fill-rule:nonzero;stroke:none"
           d="m 3619.24,63.3711 c 0,0 20.56,-31.4805 58.75,-31.4805 19.71,0 41.96,8.3907 41.96,23.918 0,16.793 -14.27,25.1719 -44.06,31.0508 -41.55,8.3906 -70.92,24.7616 -70.92,61.2616 0,28.117 28.11,55.809 71.34,55.809 45.73,0 71.75,-29.371 71.75,-29.371 l -23.08,-23.918 c 0,0 -19.3,21.41 -48.67,21.41 -24.76,0 -36.93,-12.18 -36.93,-24.77 0,-14.672 15.1,-22.652 46.99,-29.359 36.93,-7.981 68.4,-21.8322 68.4,-61.2736 C 3754.77,19.3008 3715.33,0 3677.99,0 3623.43,0 3594.9,40.6992 3594.9,40.6992 l 24.34,22.6719" />
        <path
           inkscape:connector-curvature="0"
           id="path365"
           style="fill:#de1d31;fill-opacity:1;fill-rule:nonzero;stroke:none"
           d="m 2600.46,1097.8 c 0,56.46 45.77,102.22 102.22,102.22 56.47,0 102.23,-45.76 102.23,-102.22 0,-56.46 -45.76,-102.234 -102.23,-102.234 -56.45,0 -102.22,45.774 -102.22,102.234" />
        <path
           inkscape:connector-curvature="0"
           id="path367"
           style="fill:#707a84;fill-opacity:1;fill-rule:nonzero;stroke:none"
           d="M 638.063,357.41 325.793,5.03906 H 599.094 L 788.063,236.191 c -59.532,27.45 -110.872,69.34 -150,121.219 z m 2250.277,1421.5 c -127.6,-4.67 -270.77,-143.17 -270.77,-141.61 1.56,79.36 -57.57,155.6 -166.51,138.49 -108.91,-17.12 -245.86,-154.06 -247.41,-154.06 4.67,57.58 -33.52,125.25 -93.37,147.83 -85.43,32.24 -212.15,8.25 -376.06,-173.24 -128.93,-142.76 -456.43,-516.18 -579.78,-656.117 43.66,-25.879 81.86,-59.836 112.65,-100.012 l 391.92,484.329 c 0,0 227.09,297.77 351.68,326.78 103.13,24.01 119.2,-74.6 80.91,-166.51 -77.89,-186.93 -269.21,-497.95 -269.21,-497.95 0,0 267.66,347.01 312.78,404.59 45.13,57.57 270.77,340.79 370.36,241.2 C 2602.59,1535.57 2311.02,1116 2311.02,1116 l 149.39,192.96 c 0,0 303.44,398.36 435.71,348.56 132.28,-49.79 -85.6,-413.92 -85.6,-412.37 0,0 130.49,99.46 200.75,312.78 32.13,97.55 4.67,225.64 -122.93,220.98" />
        <path
           inkscape:connector-curvature="0"
           id="path369"
           style="fill:#1f262f;fill-opacity:1;fill-rule:nonzero;stroke:none"
           d="m 0.0507813,789.297 c 0,85.75 69.0976187,158.187 172.3442187,158.187 54.121,0 99.914,-19.984 129.882,-50.777 30.813,30.793 75.762,50.777 129.887,50.777 104.082,0 169.856,-72.437 169.856,-158.187 L 601.969,412.52 h -94.926 l 0.051,362.609 c 0,59.117 -29.957,91.59 -76.582,91.59 -45.809,0 -81.61,-32.473 -81.61,-91.59 L 348.855,412.52 h -95.742 l 0.047,362.609 c 0,59.117 -35.793,91.59 -82.422,91.59 -45.808,0 -75.781,-32.473 -75.781,-91.59 L 94.9102,412.52 H 0.00390625 L 0.0507813,789.297" />
        <path
           inkscape:connector-curvature="0"
           id="path371"
           style="fill:#1f262f;fill-opacity:1;fill-rule:nonzero;stroke:none"
           d="m 1485.39,497.059 c 54.13,0 97.42,43.269 97.42,97.402 0,54.121 -43.29,97.418 -97.42,97.418 -54.1,0 -97.39,-43.297 -97.39,-97.418 0,-54.133 43.29,-97.402 97.39,-97.402 z m 96.6,441.269 h 95.75 V 597.789 c 0,-105.719 -85.77,-192.301 -192.35,-192.301 -105.73,0 -191.49,86.582 -191.49,192.301 0,106.57 80.77,192.348 184.83,192.348 44.97,0 81.61,-20.828 103.26,-39.157 v 187.348" />
        <path
           inkscape:connector-curvature="0"
           id="path373"
           style="fill:#1f262f;fill-opacity:1;fill-rule:nonzero;stroke:none"
           d="m 1051.74,596.551 c 0,55.371 -37.44,102.539 -98.06,102.539 -60.617,0 -98.02,-47.168 -98.02,-102.539 0,-55.371 37.403,-102.539 98.02,-102.539 60.62,0 98.06,47.168 98.06,102.539 z m 91.3,0 c 0,-104.031 -83.83,-186.352 -189.36,-186.352 -105.528,0 -189.332,82.321 -189.332,186.352 0,104.758 83.804,186.34 189.332,186.34 105.53,0 189.36,-81.582 189.36,-186.34" />
        <path
           inkscape:connector-curvature="0"
           id="path375"
           style="fill:#1f262f;fill-opacity:1;fill-rule:nonzero;stroke:none"
           d="m 2094.85,629.461 c -1.53,30.687 -29.96,71.848 -89.09,71.848 -57.63,0 -83.8,-40.387 -86.79,-71.848 z m 89.79,-31.41 c 0,-6.75 0,-20.199 -0.74,-33.692 h -264.93 c 6.71,-31.418 43.38,-71.839 99.51,-71.839 62.12,0 97.3,35.941 97.3,35.941 l 44.9,-67.371 c 0,0 -56.13,-50.891 -142.2,-50.891 -107.75,0 -190.82,82.321 -190.82,186.352 0,104.027 75.6,186.34 178.1,186.34 97.29,0 178.88,-75.571 178.88,-184.84" />
        <path
           inkscape:connector-curvature="0"
           id="path377"
           style="fill:#1f262f;fill-opacity:1;fill-rule:nonzero;stroke:none"
           d="m 2360.79,938.328 h 93.4 V 412.52 h -93.4 v 525.808" />
        <path
           inkscape:connector-curvature="0"
           id="path379"
           style="fill:#1f262f;fill-opacity:1;fill-rule:nonzero;stroke:none"
           d="m 3181.31,537.422 59.13,-59.883 c 0,0 -50.89,-67.34 -146.68,-67.34 -106.26,0 -190.83,82.321 -190.83,186.352 0,104.758 84.57,186.34 190.83,186.34 95.06,0 145.18,-65.871 145.18,-65.871 l -62.12,-55.372 c 0,0 -29.16,37.442 -83.06,37.442 -60.63,0 -99.52,-47.168 -99.52,-102.539 0,-55.371 38.89,-102.539 99.52,-102.539 60.61,0 87.55,43.41 87.55,43.41" />
        <path
           inkscape:connector-curvature="0"
           id="path381"
           style="fill:#1f262f;fill-opacity:1;fill-rule:nonzero;stroke:none"
           d="m 2653.74,782.598 h 94.17 V 412.52 h -94.17 v 370.078" />
        <path
           inkscape:connector-curvature="0"
           id="path383"
           style="fill:#1f262f;fill-opacity:1;fill-rule:nonzero;stroke:none"
           d="m 3562.5,494.012 c -60.62,0 -98.02,47.168 -98.02,102.539 0,55.371 37.4,102.539 98.02,102.539 60.62,0 98.05,-47.168 98.05,-102.539 0,-55.371 -37.43,-102.539 -98.05,-102.539 z m 98.05,288.586 V 756.41 c -28.53,16.75 -61.96,26.481 -98.05,26.481 -105.53,0 -189.33,-81.582 -189.33,-186.34 0,-104.031 83.8,-186.352 189.33,-186.352 36.09,0 69.52,9.821 98.05,26.641 v -24.559 h 94.16 v 370.317 h -94.16" />
      </g>
    </g>
    <g
       transform="matrix(0.19400621,0,0,-0.19086471,13.234819,99.485143)"
       inkscape:label="ink_ext_XXXXXX"
       id="g414">
      <g
         transform="scale(0.1)"
         id="g416">
        <path
           inkscape:connector-curvature="0"
           id="path418"
           style="fill:#1f262f;fill-opacity:1;fill-rule:nonzero;stroke:none"
           d="m 1845.13,395.281 h 35.25 V 135.109 h 131.76 v -33.558 h -167.01 v 293.73" />
        <path
           inkscape:connector-curvature="0"
           id="path420"
           style="fill:#1f262f;fill-opacity:1;fill-rule:nonzero;stroke:none"
           d="m 2197.63,156.941 v 27.27 c 0,0 -19.31,13.848 -50.78,13.848 -30.21,0 -49.09,-15.11 -49.09,-35.25 0,-25.18 22.65,-35.25 44.48,-35.25 34.4,0 55.39,29.382 55.39,29.382 z m 35.24,72.168 V 101.551 h -32.31 v 28.109 c 0,0 -21.82,-33.1483 -65.88,-33.1483 -34.82,0 -72.17,24.3403 -72.17,66.2973 0,37.769 33.15,64.621 76.79,64.621 35.66,0 58.33,-15.942 58.33,-15.942 v 10.492 c 0,40.282 -33.58,45.739 -49.1,45.739 -29.38,0 -57.9,-16.367 -57.9,-16.367 l -14.69,29.378 c 0,0 30.2,19.711 72.59,19.711 57.07,0 84.34,-35.242 84.34,-71.332" />
        <path
           inkscape:connector-curvature="0"
           id="path422"
           style="fill:#1f262f;fill-opacity:1;fill-rule:nonzero;stroke:none"
           d="M 2481.3,226.18 V 101.551 h -35.25 v 118.75 c 0,33.148 -20.56,47.418 -46.58,47.418 -31.47,0 -48.26,-32.739 -48.26,-32.739 V 101.551 h -35.24 V 295.41 h 32.73 v -27.269 c 0,0 17.62,32.3 59.58,32.3 38.61,0 73.02,-26.429 73.02,-74.261" />
        <path
           inkscape:connector-curvature="0"
           id="path424"
           style="fill:#1f262f;fill-opacity:1;fill-rule:nonzero;stroke:none"
           d="m 2707.47,234.98 c 0,0 -18.87,32.739 -57.06,32.739 -39.44,0 -64.21,-31.059 -64.21,-69.239 0,-38.179 24.77,-69.242 64.21,-69.242 38.61,0 57.06,32.731 57.06,32.731 z m 0,-109.101 c -6.71,-8.809 -26.85,-29.3673 -62.52,-29.3673 -52.45,0 -93.99,44.8983 -93.99,101.9683 0,57.071 41.54,101.961 93.99,101.961 46.59,0 65.46,-33.14 65.46,-33.14 v 28.109 h 32.32 V 100.711 C 2742.73,33.5703 2696.98,0 2640.75,0 2587.46,0 2556,36.9297 2556,36.9297 l 21.39,26.4297 c 0,0 23.5,-30.6289 63.36,-30.6289 41.13,0 66.72,22.6484 66.72,66.3008 v 26.8477" />
        <path
           inkscape:connector-curvature="0"
           id="path426"
           style="fill:#1f262f;fill-opacity:1;fill-rule:nonzero;stroke:none"
           d="M 2825.82,170.781 V 295.41 h 35.25 V 176.648 c 0,-33.136 20.56,-47.41 46.58,-47.41 32.72,0 48.25,31.903 48.25,31.903 V 295.41 h 35.25 V 101.551 h -32.73 v 29.789 c 0,0 -17.63,-34.8283 -59.58,-34.8283 -38.61,0 -73.02,26.4293 -73.02,74.2693" />
        <path
           inkscape:connector-curvature="0"
           id="path428"
           style="fill:#1f262f;fill-opacity:1;fill-rule:nonzero;stroke:none"
           d="m 3200.14,156.941 v 27.27 c 0,0 -19.31,13.848 -50.78,13.848 -30.21,0 -49.09,-15.11 -49.09,-35.25 0,-25.18 22.65,-35.25 44.48,-35.25 34.4,0 55.39,29.382 55.39,29.382 z m 35.24,72.168 V 101.551 h -32.31 v 28.109 c 0,0 -21.82,-33.1483 -65.88,-33.1483 -34.82,0 -72.17,24.3403 -72.17,66.2973 0,37.769 33.15,64.621 76.79,64.621 35.66,0 58.33,-15.942 58.33,-15.942 v 10.492 c 0,40.282 -33.58,45.739 -49.1,45.739 -29.38,0 -57.9,-16.367 -57.9,-16.367 l -14.69,29.378 c 0,0 30.2,19.711 72.59,19.711 57.07,0 84.34,-35.242 84.34,-71.332" />
        <path
           inkscape:connector-curvature="0"
           id="path430"
           style="fill:#1f262f;fill-opacity:1;fill-rule:nonzero;stroke:none"
           d="m 3461.56,234.98 c 0,0 -18.87,32.739 -57.06,32.739 -39.44,0 -64.21,-31.059 -64.21,-69.239 0,-38.179 24.77,-69.242 64.21,-69.242 38.61,0 57.06,32.731 57.06,32.731 z m 0,-109.101 c -6.7,-8.809 -26.85,-29.3673 -62.52,-29.3673 -52.45,0 -93.99,44.8983 -93.99,101.9683 0,57.071 41.54,101.961 93.99,101.961 46.59,0 65.46,-33.14 65.46,-33.14 v 28.109 h 32.32 V 100.711 C 3496.82,33.5703 3451.08,0 3394.85,0 c -53.3,0 -84.76,36.9297 -84.76,36.9297 l 21.4,26.4297 c 0,0 23.49,-30.6289 63.36,-30.6289 41.12,0 66.71,22.6484 66.71,66.3008 v 26.8477" />
        <path
           inkscape:connector-curvature="0"
           id="path432"
           style="fill:#1f262f;fill-opacity:1;fill-rule:nonzero;stroke:none"
           d="m 3723.42,215.27 c -1.26,21.812 -20.98,52.449 -60,52.449 -41.96,0 -59.17,-32.321 -61.69,-52.449 z m 34.41,-18.051 c 0,-3.778 0,-6.719 -0.42,-11.328 h -156.52 c 2.1,-29.371 30.22,-56.653 66.72,-56.653 38.19,0 58.33,28.543 58.33,28.543 l 22.24,-23.082 c 0,0 -29.37,-38.1873 -80.57,-38.1873 -58.74,0 -101.12,44.4763 -101.12,101.9683 0,56.649 38.6,101.961 96.93,101.961 54.13,0 94.41,-40.703 94.41,-103.222" />
        <path
           inkscape:connector-curvature="0"
           id="path434"
           style="fill:#de1d31;fill-opacity:1;fill-rule:nonzero;stroke:none"
           d="m 2600.45,1192.23 c 0,56.47 45.77,102.23 102.24,102.23 56.45,0 102.22,-45.76 102.22,-102.23 0,-56.46 -45.77,-102.23 -102.22,-102.23 -56.47,0 -102.24,45.77 -102.24,102.23" />
        <path
           inkscape:connector-curvature="0"
           id="path436"
           style="fill:#707a84;fill-opacity:1;fill-rule:nonzero;stroke:none"
           d="M 638.063,451.852 325.793,99.4805 H 599.094 L 788.066,330.629 C 728.535,358.078 677.188,399.961 638.063,451.852 Z M 2888.34,1873.34 c -127.61,-4.66 -270.77,-143.16 -270.77,-141.6 1.56,79.36 -57.57,155.61 -166.5,138.49 -108.93,-17.12 -245.87,-154.05 -247.43,-154.05 4.67,57.57 -33.51,125.25 -93.36,147.82 -85.42,32.24 -212.15,8.25 -376.06,-173.25 -128.94,-142.75 -456.44,-516.17 -579.78,-656.1 43.66,-25.89 81.86,-59.837 112.65,-100.013 l 391.92,484.323 c 0,0 227.1,297.77 351.68,326.77 103.13,24.02 119.2,-74.59 80.91,-166.5 -77.89,-186.93 -269.21,-497.95 -269.21,-497.95 0,0 267.66,347.01 312.79,404.59 45.11,57.57 270.76,340.79 370.35,241.2 97.06,-97.06 -194.51,-516.63 -194.51,-516.63 l 149.39,192.96 c 0,0 303.44,398.36 435.71,348.56 132.27,-49.79 -85.59,-413.92 -85.59,-412.37 0,0 130.48,99.46 200.74,312.79 32.13,97.54 4.68,225.63 -122.93,220.96" />
        <path
           inkscape:connector-curvature="0"
           id="path438"
           style="fill:#1f262f;fill-opacity:1;fill-rule:nonzero;stroke:none"
           d="m 0.0507813,883.734 c 0,85.758 69.1015187,158.186 172.3442187,158.186 54.121,0 99.91,-19.98 129.882,-50.775 30.817,30.795 75.766,50.775 129.887,50.775 104.082,0 169.856,-72.428 169.856,-158.186 l -0.051,-376.773 h -94.926 l 0.051,362.617 c 0,59.113 -29.957,91.578 -76.586,91.578 -45.805,0 -81.606,-32.465 -81.606,-91.578 l -0.047,-362.617 h -95.742 l 0.047,362.617 c 0,59.113 -35.797,91.578 -82.422,91.578 -45.808,0 -75.781,-32.465 -75.781,-91.578 L 94.9102,506.961 H 0 l 0.0507813,376.773" />
        <path
           inkscape:connector-curvature="0"
           id="path440"
           style="fill:#1f262f;fill-opacity:1;fill-rule:nonzero;stroke:none"
           d="m 1485.39,591.5 c 54.13,0 97.42,43.281 97.42,97.398 0,54.122 -43.29,97.422 -97.42,97.422 -54.1,0 -97.4,-43.3 -97.4,-97.422 0,-54.117 43.3,-97.398 97.4,-97.398 z m 96.6,441.27 h 95.75 V 692.23 c 0,-105.71 -85.77,-192.3 -192.35,-192.3 -105.73,0 -191.49,86.59 -191.49,192.3 0,106.571 80.77,192.344 184.83,192.344 44.97,0 81.61,-20.824 103.26,-39.144 v 187.34" />
        <path
           inkscape:connector-curvature="0"
           id="path442"
           style="fill:#1f262f;fill-opacity:1;fill-rule:nonzero;stroke:none"
           d="m 1051.74,690.988 c 0,55.371 -37.44,102.543 -98.056,102.543 -60.621,0 -98.024,-47.172 -98.024,-102.543 0,-55.367 37.403,-102.539 98.024,-102.539 60.616,0 98.056,47.172 98.056,102.539 z m 91.3,0 c 0,-104.027 -83.83,-186.347 -189.356,-186.347 -105.528,0 -189.332,82.32 -189.332,186.347 0,104.774 83.804,186.34 189.332,186.34 105.526,0 189.356,-81.566 189.356,-186.34" />
        <path
           inkscape:connector-curvature="0"
           id="path444"
           style="fill:#1f262f;fill-opacity:1;fill-rule:nonzero;stroke:none"
           d="m 2094.85,723.91 c -1.53,30.68 -29.97,71.852 -89.09,71.852 -57.62,0 -83.8,-40.403 -86.79,-71.852 z m 89.78,-31.43 c 0,-6.742 0,-20.191 -0.73,-33.679 h -264.93 c 6.71,-31.422 43.39,-71.84 99.52,-71.84 62.11,0 97.28,35.93 97.28,35.93 l 44.92,-67.36 c 0,0 -56.14,-50.89 -142.2,-50.89 -107.76,0 -190.83,82.32 -190.83,186.347 0,104.032 75.6,186.34 178.1,186.34 97.3,0 178.87,-75.566 178.87,-184.848" />
        <path
           inkscape:connector-curvature="0"
           id="path446"
           style="fill:#1f262f;fill-opacity:1;fill-rule:nonzero;stroke:none"
           d="m 2360.79,1032.77 h 93.4 V 506.961 h -93.4 v 525.809" />
        <path
           inkscape:connector-curvature="0"
           id="path448"
           style="fill:#1f262f;fill-opacity:1;fill-rule:nonzero;stroke:none"
           d="m 3181.31,631.871 59.12,-59.891 c 0,0 -50.88,-67.339 -146.68,-67.339 -106.26,0 -190.82,82.32 -190.82,186.347 0,104.774 84.56,186.34 190.82,186.34 95.07,0 145.19,-65.867 145.19,-65.867 l -62.11,-55.371 c 0,0 -29.16,37.441 -83.08,37.441 -60.61,0 -99.51,-47.172 -99.51,-102.543 0,-55.367 38.9,-102.539 99.51,-102.539 60.63,0 87.56,43.422 87.56,43.422" />
        <path
           inkscape:connector-curvature="0"
           id="path450"
           style="fill:#1f262f;fill-opacity:1;fill-rule:nonzero;stroke:none"
           d="m 2653.74,877.035 h 94.16 V 506.961 h -94.16 v 370.074" />
        <path
           inkscape:connector-curvature="0"
           id="path452"
           style="fill:#1f262f;fill-opacity:1;fill-rule:nonzero;stroke:none"
           d="m 3562.5,588.449 c -60.61,0 -98.02,47.172 -98.02,102.539 0,55.371 37.41,102.543 98.02,102.543 60.62,0 98.06,-47.172 98.06,-102.543 0,-55.367 -37.44,-102.539 -98.06,-102.539 z m 98.06,288.586 v -26.183 c -28.54,16.757 -61.96,26.476 -98.06,26.476 -105.53,0 -189.33,-81.566 -189.33,-186.34 0,-104.027 83.8,-186.347 189.33,-186.347 36.1,0 69.52,9.82 98.06,26.64 v -24.562 h 94.16 v 370.316 h -94.16" />
      </g>
    </g>
    <g
       transform="matrix(0.29218702,0,0,-0.28745572,50.847043,37.344747)"
       inkscape:label="ink_ext_XXXXXX"
       id="g482">
      <g
         transform="scale(0.1)"
         id="g484">
        <path
           inkscape:connector-curvature="0"
           id="path486"
           style="fill:#1f262f;fill-opacity:1;fill-rule:nonzero;stroke:none"
           d="m 1473.15,117.922 h 100.71 l -50.35,130.5 z m 33.99,180.848 h 32.73 L 1654.43,5.03906 H 1617.5 L 1586.87,84.3516 H 1460.14 L 1429.51,5.03906 h -37.76 L 1507.14,298.77" />
        <path
           inkscape:connector-curvature="0"
           id="path488"
           style="fill:#1f262f;fill-opacity:1;fill-rule:nonzero;stroke:none"
           d="m 1725.78,63.3711 c 0,0 20.56,-31.4805 58.74,-31.4805 19.73,0 41.97,8.3907 41.97,23.918 0,16.793 -14.27,25.1797 -44.06,31.0508 -41.54,8.3906 -70.92,24.7616 -70.92,61.2616 0,28.117 28.12,55.82 71.34,55.82 45.74,0 71.75,-29.382 71.75,-29.382 l -23.07,-23.918 c 0,0 -19.31,21.41 -48.68,21.41 -24.76,0 -36.93,-12.18 -36.93,-24.77 0,-14.672 15.11,-22.652 47,-29.359 36.93,-7.981 68.4,-21.8322 68.4,-61.2736 C 1861.32,19.3086 1821.87,0 1784.52,0 c -54.54,0 -83.08,40.6992 -83.08,40.6992 l 24.34,22.6719" />
        <path
           inkscape:connector-curvature="0"
           id="path490"
           style="fill:#1f262f;fill-opacity:1;fill-rule:nonzero;stroke:none"
           d="m 1946.08,63.3711 c 0,0 20.57,-31.4805 58.75,-31.4805 19.72,0 41.96,8.3907 41.96,23.918 0,16.793 -14.26,25.1797 -44.06,31.0508 -41.54,8.3906 -70.92,24.7616 -70.92,61.2616 0,28.117 28.12,55.82 71.34,55.82 45.73,0 71.76,-29.382 71.76,-29.382 l -23.09,-23.918 c 0,0 -19.29,21.41 -48.67,21.41 -24.75,0 -36.92,-12.18 -36.92,-24.77 0,-14.672 15.1,-22.652 46.99,-29.359 36.92,-7.981 68.4,-21.8322 68.4,-61.2736 C 2081.62,19.3086 2042.17,0 2004.83,0 c -54.55,0 -83.08,40.6992 -83.08,40.6992 l 24.33,22.6719" />
        <path
           inkscape:connector-curvature="0"
           id="path492"
           style="fill:#1f262f;fill-opacity:1;fill-rule:nonzero;stroke:none"
           d="m 2305.71,101.969 c 0,38.191 -25.6,69.242 -64.62,69.242 -39.03,0 -64.63,-31.051 -64.63,-69.242 0,-38.1799 25.6,-69.2385 64.63,-69.2385 39.02,0 64.62,31.0586 64.62,69.2385 z m 35.24,0 C 2340.95,44.8984 2298.15,0 2241.09,0 c -57.07,0 -99.87,44.8984 -99.87,101.969 0,57.07 42.8,101.972 99.87,101.972 57.06,0 99.86,-44.902 99.86,-101.972" />
        <path
           inkscape:connector-curvature="0"
           id="path494"
           style="fill:#1f262f;fill-opacity:1;fill-rule:nonzero;stroke:none"
           d="m 2576.37,37.3516 c 0,0 -28.11,-37.3516 -79.3,-37.3516 -57.07,0 -99.88,44.8984 -99.88,101.969 0,56.652 42.81,101.972 99.88,101.972 49.51,0 77.2,-34.832 77.2,-34.832 l -23.91,-21.41 c 0,0 -18.89,23.512 -53.29,23.512 -39.04,0 -64.63,-31.051 -64.63,-69.242 0,-38.1799 25.59,-69.2385 64.63,-69.2385 37.76,0 56.64,27.6992 56.64,27.6992 l 22.66,-23.0781" />
        <path
           inkscape:connector-curvature="0"
           id="path496"
           style="fill:#1f262f;fill-opacity:1;fill-rule:nonzero;stroke:none"
           d="m 2646.46,198.91 h 35.25 V 5.03906 h -35.25 z m 17.62,86.012 c 13.01,0 23.92,-10.91 23.92,-23.91 0,-13.012 -10.91,-23.922 -23.92,-23.922 -13.01,0 -23.92,10.91 -23.92,23.922 0,13 10.91,23.91 23.92,23.91" />
        <path
           inkscape:connector-curvature="0"
           id="path498"
           style="fill:#1f262f;fill-opacity:1;fill-rule:nonzero;stroke:none"
           d="m 2896.97,60.4297 v 27.2695 c 0,0 -19.31,13.8518 -50.78,13.8518 -30.21,0 -49.09,-15.1096 -49.09,-35.2502 0,-25.1797 22.65,-35.25 44.48,-35.25 34.4,0 55.39,29.3789 55.39,29.3789 z m 35.24,72.1793 V 5.03906 H 2899.9 V 33.1484 c 0,0 -21.82,-33.1484 -65.88,-33.1484 -34.82,0 -72.17,24.3516 -72.17,66.3008 0,37.7692 33.15,64.6292 76.79,64.6292 35.66,0 58.33,-15.95 58.33,-15.95 v 10.489 c 0,40.281 -33.57,45.742 -49.1,45.742 -29.38,0 -57.9,-16.371 -57.9,-16.371 l -14.69,29.379 c 0,0 30.21,19.722 72.59,19.722 57.07,0 84.34,-35.25 84.34,-71.332" />
        <path
           inkscape:connector-curvature="0"
           id="path500"
           style="fill:#1f262f;fill-opacity:1;fill-rule:nonzero;stroke:none"
           d="m 2998.53,198.91 h 37.77 v 59.16 h 35.25 v -59.16 h 60.42 v -31.898 h -60.42 V 62.5313 c 0,-18.8907 9.23,-29.8008 28.12,-29.8008 10.9,0 22.23,7.9687 22.23,7.9687 L 3134.91,11.75 C 3118.12,2.51953 3105.95,0 3094.63,0 3066.93,0 3036.3,18.0508 3036.3,60.8516 V 167.012 h -37.77 v 31.898" />
        <path
           inkscape:connector-curvature="0"
           id="path502"
           style="fill:#1f262f;fill-opacity:1;fill-rule:nonzero;stroke:none"
           d="m 3208.78,198.91 h 35.24 V 5.03906 h -35.24 z m 17.61,86.012 c 13.01,0 23.92,-10.91 23.92,-23.91 0,-13.012 -10.91,-23.922 -23.92,-23.922 -13,0 -23.91,10.91 -23.91,23.922 0,13 10.91,23.91 23.91,23.91" />
        <path
           inkscape:connector-curvature="0"
           id="path504"
           style="fill:#1f262f;fill-opacity:1;fill-rule:nonzero;stroke:none"
           d="m 3484.46,101.969 c 0,38.191 -25.6,69.242 -64.62,69.242 -39.03,0 -64.63,-31.051 -64.63,-69.242 0,-38.1799 25.6,-69.2385 64.63,-69.2385 39.02,0 64.62,31.0586 64.62,69.2385 z m 35.24,0 C 3519.7,44.8984 3476.9,0 3419.84,0 c -57.07,0 -99.87,44.8984 -99.87,101.969 0,57.07 42.8,101.972 99.87,101.972 57.06,0 99.86,-44.902 99.86,-101.972" />
        <path
           inkscape:connector-curvature="0"
           id="path506"
           style="fill:#1f262f;fill-opacity:1;fill-rule:nonzero;stroke:none"
           d="M 3754.71,129.672 V 5.03906 h -35.25 V 123.789 c 0,33.152 -20.56,47.422 -46.57,47.422 -31.48,0 -48.26,-32.731 -48.26,-32.731 V 5.03906 h -35.25 V 198.91 h 32.74 v -27.281 c 0,0 17.61,32.312 59.58,32.312 38.6,0 73.01,-26.441 73.01,-74.269" />
        <path
           inkscape:connector-curvature="0"
           id="path508"
           style="fill:#de1d31;fill-opacity:1;fill-rule:nonzero;stroke:none"
           d="m 2600.46,1101.13 c 0,56.46 45.77,102.23 102.22,102.23 56.47,0 102.24,-45.77 102.24,-102.23 0,-56.46 -45.77,-102.224 -102.24,-102.224 -56.45,0 -102.22,45.764 -102.22,102.224" />
        <path
           inkscape:connector-curvature="0"
           id="path510"
           style="fill:#707a84;fill-opacity:1;fill-rule:nonzero;stroke:none"
           d="M 638.063,360.75 325.793,8.37891 H 599.094 L 788.066,239.531 C 728.531,266.98 677.191,308.871 638.063,360.75 Z m 2250.277,1421.5 c -127.6,-4.67 -270.77,-143.17 -270.77,-141.62 1.56,79.37 -57.57,155.62 -166.51,138.5 -108.91,-17.12 -245.86,-154.06 -247.41,-154.06 4.67,57.58 -33.52,125.25 -93.37,147.83 -85.43,32.24 -212.15,8.25 -376.06,-173.24 -128.93,-142.76 -456.43,-516.18 -579.78,-656.117 43.66,-25.875 81.86,-59.832 112.65,-100.008 l 391.92,484.325 c 0,0 227.09,297.77 351.68,326.78 103.13,24.01 119.2,-74.6 80.91,-166.51 -77.89,-186.93 -269.21,-497.95 -269.21,-497.95 0,0 267.66,347.01 312.78,404.59 45.13,57.57 270.77,340.79 370.36,241.2 97.06,-97.06 -194.51,-516.63 -194.51,-516.63 l 149.39,192.95 c 0,0 303.44,398.37 435.71,348.57 132.28,-49.79 -85.6,-413.93 -85.6,-412.37 0,0 130.49,99.46 200.75,312.78 32.13,97.55 4.67,225.64 -122.93,220.98" />
        <path
           inkscape:connector-curvature="0"
           id="path512"
           style="fill:#1f262f;fill-opacity:1;fill-rule:nonzero;stroke:none"
           d="m 0.0507813,792.637 c 0,85.75 69.1015187,158.187 172.3442187,158.187 54.121,0 99.914,-19.984 129.882,-50.777 30.813,30.793 75.762,50.777 129.887,50.777 104.082,0 169.856,-72.437 169.856,-158.187 l -0.051,-376.778 h -94.926 l 0.051,362.621 c 0,59.106 -29.957,91.579 -76.582,91.579 -45.809,0 -81.61,-32.473 -81.61,-91.579 l -0.047,-362.621 h -95.742 l 0.047,362.621 c 0,59.106 -35.797,91.579 -82.422,91.579 -45.808,0 -75.781,-32.473 -75.781,-91.579 L 94.9102,415.859 H 0.00390625 L 0.0507813,792.637" />
        <path
           inkscape:connector-curvature="0"
           id="path514"
           style="fill:#1f262f;fill-opacity:1;fill-rule:nonzero;stroke:none"
           d="m 1485.39,500.398 c 54.13,0 97.42,43.274 97.42,97.403 0,54.121 -43.29,97.41 -97.42,97.41 -54.1,0 -97.39,-43.289 -97.39,-97.41 0,-54.129 43.29,-97.403 97.39,-97.403 z m 96.6,441.27 h 95.75 V 601.129 c 0,-105.719 -85.77,-192.309 -192.35,-192.309 -105.73,0 -191.49,86.59 -191.49,192.309 0,106.57 80.77,192.348 184.83,192.348 44.97,0 81.61,-20.817 103.26,-39.149 v 187.34" />
        <path
           inkscape:connector-curvature="0"
           id="path516"
           style="fill:#1f262f;fill-opacity:1;fill-rule:nonzero;stroke:none"
           d="m 1051.74,599.891 c 0,55.371 -37.44,102.531 -98.06,102.531 -60.617,0 -98.02,-47.16 -98.02,-102.531 0,-55.371 37.403,-102.539 98.02,-102.539 60.62,0 98.06,47.168 98.06,102.539 z m 91.3,0 c 0,-104.032 -83.83,-186.352 -189.36,-186.352 -105.528,0 -189.332,82.32 -189.332,186.352 0,104.757 83.804,186.339 189.332,186.339 105.53,0 189.36,-81.582 189.36,-186.339" />
        <path
           inkscape:connector-curvature="0"
           id="path518"
           style="fill:#1f262f;fill-opacity:1;fill-rule:nonzero;stroke:none"
           d="m 2094.85,632.801 c -1.53,30.699 -29.96,71.847 -89.08,71.847 -57.64,0 -83.81,-40.386 -86.8,-71.847 z m 89.79,-31.41 c 0,-6.75 0,-20.2 -0.74,-33.692 h -264.93 c 6.71,-31.418 43.38,-71.84 99.51,-71.84 62.12,0 97.3,35.942 97.3,35.942 l 44.9,-67.371 c 0,0 -56.13,-50.891 -142.2,-50.891 -107.75,0 -190.82,82.32 -190.82,186.352 0,104.039 75.6,186.339 178.11,186.339 97.28,0 178.87,-75.57 178.87,-184.839" />
        <path
           inkscape:connector-curvature="0"
           id="path520"
           style="fill:#1f262f;fill-opacity:1;fill-rule:nonzero;stroke:none"
           d="m 2360.79,941.668 h 93.4 V 415.859 h -93.4 v 525.809" />
        <path
           inkscape:connector-curvature="0"
           id="path522"
           style="fill:#1f262f;fill-opacity:1;fill-rule:nonzero;stroke:none"
           d="m 3181.32,540.762 59.12,-59.883 c 0,0 -50.89,-67.34 -146.68,-67.34 -106.26,0 -190.83,82.32 -190.83,186.352 0,104.757 84.57,186.339 190.83,186.339 95.06,0 145.18,-65.871 145.18,-65.871 l -62.12,-55.371 c 0,0 -29.16,37.434 -83.06,37.434 -60.63,0 -99.52,-47.16 -99.52,-102.531 0,-55.371 38.89,-102.539 99.52,-102.539 60.61,0 87.56,43.41 87.56,43.41" />
        <path
           inkscape:connector-curvature="0"
           id="path524"
           style="fill:#1f262f;fill-opacity:1;fill-rule:nonzero;stroke:none"
           d="m 2653.74,785.938 h 94.17 V 415.859 h -94.17 v 370.079" />
        <path
           inkscape:connector-curvature="0"
           id="path526"
           style="fill:#1f262f;fill-opacity:1;fill-rule:nonzero;stroke:none"
           d="m 3562.5,497.352 c -60.62,0 -98.02,47.168 -98.02,102.539 0,55.371 37.4,102.531 98.02,102.531 60.62,0 98.05,-47.16 98.05,-102.531 0,-55.371 -37.43,-102.539 -98.05,-102.539 z m 98.05,288.586 v -26.176 c -28.53,16.738 -61.96,26.468 -98.05,26.468 -105.53,0 -189.33,-81.582 -189.33,-186.339 0,-104.032 83.8,-186.352 189.33,-186.352 36.09,0 69.52,9.82 98.05,26.652 v -24.57 h 94.16 v 370.317 h -94.16" />
      </g>
    </g>
    <g
       transform="matrix(0.18683566,0,0,-0.18381028,108.67876,121.80742)"
       inkscape:label="ink_ext_XXXXXX"
       id="g559">
      <g
         transform="scale(0.1)"
         id="g561">
        <path
           inkscape:connector-curvature="0"
           id="path563"
           style="fill:#cc193a;fill-opacity:1;fill-rule:nonzero;stroke:none"
           d="M 0,5.41016 V 93.832 l 1138.9,0.5469 70.34,-63.0664 70.38,63.0664 445.73,-0.5469 -0.04,-88.42184 H 0" />
        <path
           inkscape:connector-curvature="0"
           id="path565"
           style="fill:#2a3741;fill-opacity:1;fill-rule:nonzero;stroke:none"
           d="m 17.9297,394.398 v 110.02 H 327 c 39.801,0 72.172,32.336 72.172,72.129 0,39.801 -32.371,72.172 -72.172,72.172 H 183.48 c -100.4487,0 -182.15187,81.707 -182.15187,182.148 0,100.449 81.70317,182.193 182.15187,182.193 l 360.274,0.74 C 499.035,969.711 478.184,921.832 471.23,903.043 H 183.48 c -39.8,0 -72.132,-32.375 -72.132,-72.176 0,-39.793 32.332,-72.168 72.132,-72.168 L 327,758.738 c 100.449,0 182.191,-81.742 182.191,-182.191 C 509.191,476.098 427.449,394.398 327,394.398 H 17.9297" />
        <path
           inkscape:connector-curvature="0"
           id="path567"
           style="fill:#2a3741;fill-opacity:1;fill-rule:nonzero;stroke:none"
           d="m 536.609,394.398 c 19.879,24.836 52.211,69.758 61.586,110.02 h 310.993 c 39.796,0 72.132,32.336 72.132,72.129 0,39.801 -32.336,72.172 -72.132,72.172 H 765.66 c -100.445,0 -182.183,81.707 -182.183,182.148 0,100.449 81.738,182.193 182.183,182.193 l 406.95,0.74 c -21.6,-21.905 -53.93,-60.495 -73.07,-110.757 H 765.66 c -39.793,0 -72.172,-32.375 -72.172,-72.176 0,-39.793 32.379,-72.168 72.172,-72.168 l 143.528,0.039 c 100.442,0 182.152,-81.742 182.152,-182.191 0,-100.449 -81.71,-182.149 -182.152,-182.149 H 536.609" />
        <path
           inkscape:connector-curvature="0"
           id="path569"
           style="fill:#2a3741;fill-opacity:1;fill-rule:nonzero;stroke:none"
           d="m 1426.66,906.285 c -89.47,0 -162.27,-72.801 -162.27,-162.312 v -80.528 c 0,-89.515 72.8,-162.308 162.27,-162.308 h 27.49 c 89.48,0 162.27,72.793 162.27,162.308 v 80.528 c 0,89.511 -72.79,162.312 -162.27,162.312 z M 1156.79,141.48 v 602.493 c 0,148.84 121.07,269.907 269.87,269.907 h 27.49 c 148.8,0 269.87,-121.067 269.87,-269.907 v -80.528 c 0,-148.8 -121.07,-269.867 -269.87,-269.867 h -27.49 c -51.24,0 -101.31,14.727 -144.86,42.57 l -17.41,11.133 V 141.48 l -53.82,-50.6167 -53.78,50.6167" />
        <path
           inkscape:connector-curvature="0"
           id="path571"
           style="fill:#2a3741;fill-opacity:1;fill-rule:nonzero;stroke:none"
           d="m 2193.25,502.523 c -38.25,17.618 -71.99,35.247 -71.99,79.856 0,30.742 25.49,68.984 75.74,68.984 49.48,0 74.6,-38.242 74.6,-38.242 L 2247.98,594 c 0,0 -18.37,27.371 -50.98,27.371 -28.87,0 -44.24,-20.242 -44.24,-38.992 0,-26.613 22.49,-37.109 58.47,-53.613 40.12,-18.371 65.24,-35.235 65.24,-77.598 0,-42.746 -35.24,-71.242 -81.35,-71.242 -62.24,0 -83.6,54.738 -83.6,54.738 l 26.24,15.75 c 0,0 15.74,-40.488 57.36,-40.488 25.12,0 49.11,14.238 49.11,41.242 0,27.363 -21.75,37.859 -50.98,51.355" />
        <path
           inkscape:connector-curvature="0"
           id="path573"
           style="fill:#2a3741;fill-opacity:1;fill-rule:nonzero;stroke:none"
           d="m 2334.6,331.938 c 0,0 10.87,-8.993 20.62,-8.993 13.88,0 20.24,9.746 26.99,26.621 l 13.5,34.11 -80.98,173.957 h 35.62 l 60.73,-136.836 51.74,136.836 h 34.12 c 0,0 -86.99,-218.945 -91.11,-229.063 -10.12,-25.117 -29.62,-34.875 -47.98,-34.875 -21.37,0 -36.74,12.375 -36.74,12.375 l 13.49,25.868" />
        <path
           inkscape:connector-curvature="0"
           id="path575"
           style="fill:#2a3741;fill-opacity:1;fill-rule:nonzero;stroke:none"
           d="m 2547.94,436.539 c 0,0 18.37,-28.117 52.49,-28.117 17.62,0 37.49,7.5 37.49,21.367 0,15 -12.75,22.5 -39.36,27.746 -37.12,7.5 -63.36,22.117 -63.36,54.735 0,25.117 25.12,49.863 63.73,49.863 40.87,0 64.11,-26.238 64.11,-26.238 l -20.62,-21.368 c 0,0 -17.25,19.11 -43.49,19.11 -22.12,0 -32.99,-10.867 -32.99,-22.117 0,-13.118 13.5,-20.247 41.98,-26.243 33,-7.117 61.12,-19.492 61.12,-54.734 0,-33.371 -35.25,-50.617 -68.61,-50.617 -48.74,0 -74.24,36.367 -74.24,36.367 l 21.75,20.246" />
        <path
           inkscape:connector-curvature="0"
           id="path577"
           style="fill:#2a3741;fill-opacity:1;fill-rule:nonzero;stroke:none"
           d="m 2708.04,557.633 h 33.75 v 52.871 h 31.48 v -52.871 h 54 v -28.488 h -54 v -93.348 c 0,-16.875 8.26,-26.621 25.13,-26.621 9.75,0 19.87,7.117 19.87,7.117 l 11.62,-25.867 c -14.99,-8.242 -25.87,-10.5 -35.99,-10.5 -24.75,0 -52.11,16.125 -52.11,54.367 v 94.852 h -33.75 v 28.488" />
        <path
           inkscape:connector-curvature="0"
           id="path579"
           style="fill:#2a3741;fill-opacity:1;fill-rule:nonzero;stroke:none"
           d="m 3007.24,486.031 c -1.13,19.492 -18.75,46.864 -53.61,46.864 -37.49,0 -52.86,-28.868 -55.12,-46.864 z m 30.74,-16.125 c 0,-3.367 0,-5.996 -0.38,-10.117 h -139.83 c 1.86,-26.25 26.99,-50.613 59.61,-50.613 34.11,0 52.11,25.488 52.11,25.488 l 19.87,-20.617 c 0,0 -26.25,-34.121 -71.98,-34.121 -52.49,0 -90.36,39.746 -90.36,91.105 0,50.614 34.49,91.102 86.61,91.102 48.36,0 84.35,-36.367 84.35,-92.227" />
        <path
           inkscape:connector-curvature="0"
           id="path581"
           style="fill:#2a3741;fill-opacity:1;fill-rule:nonzero;stroke:none"
           d="M 3331.93,495.777 V 384.43 h -31.5 v 106.472 c 0,28.118 -14.62,41.993 -37.11,41.993 -25.87,0 -37.12,-27.743 -37.12,-27.743 V 384.43 h -31.49 v 106.472 c 0,28.118 -14.62,41.993 -37.12,41.993 -25.49,0 -37.11,-27.743 -37.11,-27.743 V 384.43 h -31.49 v 173.203 h 29.24 v -25.488 c 0,0 12.75,29.988 47.98,29.988 43.12,0 54,-32.235 54,-32.235 0,0 13.87,32.235 51.74,32.235 35.98,0 59.98,-23.613 59.98,-66.356" />
        <path
           inkscape:connector-curvature="0"
           id="path583"
           style="fill:#2a3741;fill-opacity:1;fill-rule:nonzero;stroke:none"
           d="m 3591.4,502.523 c -38.24,17.618 -71.98,35.247 -71.98,79.856 0,30.742 25.49,68.984 75.73,68.984 49.48,0 74.6,-38.242 74.6,-38.242 L 3646.14,594 c 0,0 -18.37,27.371 -50.99,27.371 -28.87,0 -44.25,-20.242 -44.25,-38.992 0,-26.613 22.5,-37.109 58.49,-53.613 40.12,-18.371 65.23,-35.235 65.23,-77.598 0,-42.746 -35.23,-71.242 -81.35,-71.242 -62.23,0 -83.6,54.738 -83.6,54.738 l 26.24,15.75 c 0,0 15.74,-40.488 57.36,-40.488 25.12,0 49.12,14.238 49.12,41.242 0,27.363 -21.75,37.859 -50.99,51.355" />
        <path
           inkscape:connector-curvature="0"
           id="path585"
           style="fill:#2a3741;fill-opacity:1;fill-rule:nonzero;stroke:none"
           d="m 3718.14,557.633 h 33.75 v 52.871 h 31.48 v -52.871 h 54 v -28.488 h -54 v -93.348 c 0,-16.875 8.25,-26.621 25.13,-26.621 9.75,0 19.86,7.117 19.86,7.117 l 11.62,-25.867 c -14.99,-8.242 -25.87,-10.5 -35.98,-10.5 -24.75,0 -52.11,16.125 -52.11,54.367 v 94.852 h -33.75 v 28.488" />
        <path
           inkscape:connector-curvature="0"
           id="path587"
           style="fill:#2a3741;fill-opacity:1;fill-rule:nonzero;stroke:none"
           d="m 3991.84,557.633 -11.62,-28.488 c 0,0 -6.75,3.75 -19.87,3.75 -27.37,0 -39.74,-29.247 -39.74,-29.247 V 384.43 h -31.5 v 173.203 h 29.24 V 531.02 c 0,0 15.37,31.113 48.37,31.113 14.25,0 25.12,-4.5 25.12,-4.5" />
        <path
           inkscape:connector-curvature="0"
           id="path589"
           style="fill:#2a3741;fill-opacity:1;fill-rule:nonzero;stroke:none"
           d="m 4031.6,446.285 v 111.348 h 31.49 V 451.539 c 0,-29.621 18.37,-42.363 41.61,-42.363 29.25,0 43.12,28.484 43.12,28.484 v 119.973 h 31.49 V 384.43 h -29.25 v 26.621 c 0,0 -15.74,-31.125 -53.23,-31.125 -34.49,0 -65.23,23.625 -65.23,66.359" />
        <path
           inkscape:connector-curvature="0"
           id="path591"
           style="fill:#2a3741;fill-opacity:1;fill-rule:nonzero;stroke:none"
           d="m 4390.39,413.297 c 0,0 -25.11,-33.371 -70.86,-33.371 -50.98,0 -89.21,40.117 -89.21,91.105 0,50.614 38.23,91.102 89.21,91.102 44.25,0 68.99,-31.113 68.99,-31.113 l -21.37,-19.122 c 0,0 -16.87,20.997 -47.62,20.997 -34.86,0 -57.73,-27.743 -57.73,-61.864 0,-34.113 22.87,-61.855 57.73,-61.855 33.75,0 50.62,24.746 50.62,24.746 l 20.24,-20.625" />
        <path
           inkscape:connector-curvature="0"
           id="path593"
           style="fill:#2a3741;fill-opacity:1;fill-rule:nonzero;stroke:none"
           d="m 4421.15,557.633 h 33.75 v 52.871 h 31.48 v -52.871 h 53.99 v -28.488 h -53.99 v -93.348 c 0,-16.875 8.25,-26.621 25.13,-26.621 9.74,0 19.86,7.117 19.86,7.117 l 11.62,-25.867 c -14.99,-8.242 -25.87,-10.5 -35.98,-10.5 -24.75,0 -52.11,16.125 -52.11,54.367 v 94.852 h -33.75 v 28.488" />
        <path
           inkscape:connector-curvature="0"
           id="path595"
           style="fill:#2a3741;fill-opacity:1;fill-rule:nonzero;stroke:none"
           d="m 4592.12,446.285 v 111.348 h 31.5 V 451.539 c 0,-29.621 18.37,-42.363 41.61,-42.363 29.25,0 43.11,28.484 43.11,28.484 v 119.973 h 31.5 V 384.43 h -29.25 v 26.621 c 0,0 -15.74,-31.125 -53.23,-31.125 -34.5,0 -65.24,23.625 -65.24,66.359" />
        <path
           inkscape:connector-curvature="0"
           id="path597"
           style="fill:#2a3741;fill-opacity:1;fill-rule:nonzero;stroke:none"
           d="m 4905.57,557.633 -11.62,-28.488 c 0,0 -6.75,3.75 -19.87,3.75 -27.37,0 -39.74,-29.247 -39.74,-29.247 V 384.43 h -31.49 v 173.203 h 29.23 V 531.02 c 0,0 15.37,31.113 48.37,31.113 14.25,0 25.12,-4.5 25.12,-4.5" />
        <path
           inkscape:connector-curvature="0"
           id="path599"
           style="fill:#2a3741;fill-opacity:1;fill-rule:nonzero;stroke:none"
           d="m 5067.55,486.031 c -1.13,19.492 -18.75,46.864 -53.61,46.864 -37.49,0 -52.86,-28.868 -55.12,-46.864 z m 30.74,-16.125 c 0,-3.367 0,-5.996 -0.38,-10.117 h -139.83 c 1.86,-26.25 26.99,-50.613 59.61,-50.613 34.11,0 52.11,25.488 52.11,25.488 l 19.87,-20.617 c 0,0 -26.25,-34.121 -71.98,-34.121 -52.49,0 -90.36,39.746 -90.36,91.105 0,50.614 34.49,91.102 86.61,91.102 48.36,0 84.35,-36.367 84.35,-92.227" />
        <path
           inkscape:connector-curvature="0"
           id="path601"
           style="fill:#2a3741;fill-opacity:1;fill-rule:nonzero;stroke:none"
           d="m 2200.75,161.969 c 32.98,28.867 36.35,32.246 36.35,49.492 0,16.113 -14.24,32.234 -34.49,32.234 -21.74,0 -34.48,-16.863 -34.48,-32.234 0,-23.996 15.37,-32.246 32.62,-49.492 z m 69.72,-103.0979 -72.35,64.4839 -1.12,-1.125 c -31.5,-25.8667 -45.75,-38.6206 -45.75,-56.6089 0,-26.25 27.37,-36.3672 52.11,-36.3672 26.25,0 52.49,11.6211 67.11,29.6172 z m 55.86,89.6019 c 0,-58.4886 -16.49,-84.7269 -16.49,-84.7269 L 2355.58,22.5039 2336.46,0 2291.47,39.75 C 2273.1,16.8789 2239.36,0 2203.36,0 c -51.74,0 -83.6,30.375 -83.6,61.8711 0,28.8672 10.5,45.7309 56.24,81.3559 -30,26.992 -39.37,44.98 -39.37,68.234 0,28.484 23.62,59.98 65.98,59.98 42.37,0 65.99,-31.867 65.99,-59.98 0,-22.121 -7.5,-35.996 -46.87,-68.613 l 65.62,-59.2386 c 0,0 9.74,12.3711 9.74,64.8636 h 29.24" />
        <path
           inkscape:connector-curvature="0"
           id="path603"
           style="fill:#2a3741;fill-opacity:1;fill-rule:nonzero;stroke:none"
           d="m 2587.31,138.727 c 35.61,0 59.98,15.742 59.98,49.109 0,33.371 -24.37,49.113 -59.98,49.113 h -34.49 v -98.222 z m -65.99,128.211 h 67.86 c 54.74,0 89.6,-28.868 89.6,-79.102 0,-50.234 -34.86,-79.102 -89.6,-79.102 h -36.36 V 4.51172 h -31.5 V 266.938" />
        <path
           inkscape:connector-curvature="0"
           id="path605"
           style="fill:#2a3741;fill-opacity:1;fill-rule:nonzero;stroke:none"
           d="m 2840.01,54 v 24.3633 c 0,0 -17.24,12.375 -45.36,12.375 -26.99,0 -43.87,-13.4961 -43.87,-31.4961 0,-22.4883 20.25,-31.4922 39.75,-31.4922 30.74,0 49.48,26.25 49.48,26.25 z m 31.5,64.48 V 4.51172 h -28.87 V 29.625 c 0,0 -19.49,-29.625 -58.86,-29.625 -31.12,0 -64.49,21.7539 -64.49,59.2422 0,33.7422 29.62,57.7348 68.61,57.7348 31.87,0 52.11,-14.247 52.11,-14.247 v 9.375 c 0,35.997 -29.99,40.868 -43.86,40.868 -26.24,0 -51.73,-14.629 -51.73,-14.629 l -13.13,26.25 c 0,0 26.99,17.617 64.86,17.617 50.99,0 75.36,-31.492 75.36,-63.731" />
        <path
           inkscape:connector-curvature="0"
           id="path607"
           style="fill:#2a3741;fill-opacity:1;fill-rule:nonzero;stroke:none"
           d="m 3037.24,177.711 -11.62,-28.488 c 0,0 -6.75,3.75 -19.87,3.75 -27.37,0 -39.74,-29.246 -39.74,-29.246 V 4.51172 h -31.49 V 177.711 h 29.23 v -26.613 c 0,0 15.37,31.113 48.37,31.113 14.25,0 25.12,-4.5 25.12,-4.5" />
        <path
           inkscape:connector-curvature="0"
           id="path609"
           style="fill:#2a3741;fill-opacity:1;fill-rule:nonzero;stroke:none"
           d="m 3184.96,54 v 24.3633 c 0,0 -17.24,12.375 -45.36,12.375 -26.99,0 -43.86,-13.4961 -43.86,-31.4961 0,-22.4883 20.24,-31.4922 39.74,-31.4922 30.74,0 49.48,26.25 49.48,26.25 z m 31.5,64.48 V 4.51172 h -28.87 V 29.625 c 0,0 -19.49,-29.625 -58.86,-29.625 -31.12,0 -64.49,21.7539 -64.49,59.2422 0,33.7422 29.62,57.7348 68.61,57.7348 31.87,0 52.11,-14.247 52.11,-14.247 v 9.375 c 0,35.997 -29.99,40.868 -43.86,40.868 -26.24,0 -51.73,-14.629 -51.73,-14.629 l -13.13,26.25 c 0,0 27,17.617 64.86,17.617 50.99,0 75.36,-31.492 75.36,-63.731" />
        <path
           inkscape:connector-curvature="0"
           id="path611"
           style="fill:#2a3741;fill-opacity:1;fill-rule:nonzero;stroke:none"
           d="M 3522.41,115.855 V 4.51172 h -31.5 V 110.98 c 0,28.118 -14.62,41.993 -37.11,41.993 -25.87,0 -37.12,-27.743 -37.12,-27.743 V 4.51172 h -31.49 V 110.98 c 0,28.118 -14.62,41.993 -37.12,41.993 -25.49,0 -37.11,-27.743 -37.11,-27.743 V 4.51172 h -31.49 V 177.711 h 29.23 v -25.488 c 0,0 12.76,29.988 47.99,29.988 43.12,0 54,-32.234 54,-32.234 0,0 13.86,32.234 51.74,32.234 35.98,0 59.98,-23.613 59.98,-66.356" />
        <path
           inkscape:connector-curvature="0"
           id="path613"
           style="fill:#2a3741;fill-opacity:1;fill-rule:nonzero;stroke:none"
           d="m 3713.64,106.109 c -1.14,19.493 -18.75,46.864 -53.62,46.864 -37.49,0 -52.86,-28.868 -55.11,-46.864 z m 30.74,-16.1246 c 0,-3.3672 0,-5.9961 -0.38,-10.1172 h -139.84 c 1.87,-26.25 27,-50.6133 59.61,-50.6133 34.11,0 52.11,25.4883 52.11,25.4883 l 19.88,-20.6172 c 0,0 -26.25,-34.125 -71.99,-34.125 -52.49,0 -90.35,39.75 -90.35,91.1094 0,50.6136 34.48,91.1016 86.6,91.1016 48.36,0 84.36,-36.367 84.36,-92.2266" />
        <path
           inkscape:connector-curvature="0"
           id="path615"
           style="fill:#2a3741;fill-opacity:1;fill-rule:nonzero;stroke:none"
           d="m 3780.38,177.711 h 33.75 v 52.871 h 31.49 v -52.871 h 53.99 v -28.488 h -53.99 V 55.875 c 0,-16.875 8.25,-26.6211 25.13,-26.6211 9.74,0 19.86,7.1172 19.86,7.1172 L 3902.23,10.5 C 3887.24,2.26172 3876.36,0 3866.24,0 c -24.74,0 -52.11,16.1289 -52.11,54.3711 v 94.8519 h -33.75 v 28.488" />
        <path
           inkscape:connector-curvature="0"
           id="path617"
           style="fill:#2a3741;fill-opacity:1;fill-rule:nonzero;stroke:none"
           d="m 4079.58,106.109 c -1.13,19.493 -18.75,46.864 -53.61,46.864 -37.49,0 -52.86,-28.868 -55.12,-46.864 z m 30.75,-16.1246 c 0,-3.3672 0,-5.9961 -0.39,-10.1172 h -139.83 c 1.87,-26.25 26.99,-50.6133 59.61,-50.6133 34.11,0 52.11,25.4883 52.11,25.4883 L 4101.7,34.125 c 0,0 -26.25,-34.125 -71.98,-34.125 -52.49,0 -90.36,39.75 -90.36,91.1094 0,50.6136 34.49,91.1016 86.61,91.1016 48.36,0 84.36,-36.367 84.36,-92.2266" />
        <path
           inkscape:connector-curvature="0"
           id="path619"
           style="fill:#2a3741;fill-opacity:1;fill-rule:nonzero;stroke:none"
           d="m 4264.05,177.711 -11.62,-28.488 c 0,0 -6.75,3.75 -19.88,3.75 -27.36,0 -39.73,-29.246 -39.73,-29.246 V 4.51172 h -31.5 V 177.711 h 29.24 v -26.613 c 0,0 15.37,31.113 48.37,31.113 14.25,0 25.12,-4.5 25.12,-4.5" />
        <path
           inkscape:connector-curvature="0"
           id="path621"
           style="fill:#2a3741;fill-opacity:1;fill-rule:nonzero;stroke:none"
           d="m 4309.43,177.711 h 31.49 V 4.51172 h -31.49 z m 15.74,76.863 c 11.62,0 21.38,-9.754 21.38,-21.375 0,-11.621 -9.76,-21.367 -21.38,-21.367 -11.62,0 -21.37,9.746 -21.37,21.367 0,11.621 9.75,21.375 21.37,21.375" />
        <path
           inkscape:connector-curvature="0"
           id="path623"
           style="fill:#2a3741;fill-opacity:1;fill-rule:nonzero;stroke:none"
           d="M 4553.13,177.711 4453.77,33.7461 H 4549 V 4.51172 h -150.72 l 99.36,143.96128 h -94.1 v 29.238 h 149.59" />
        <path
           inkscape:connector-curvature="0"
           id="path625"
           style="fill:#2a3741;fill-opacity:1;fill-rule:nonzero;stroke:none"
           d="m 4713.23,54 v 24.3633 c 0,0 -17.25,12.375 -45.37,12.375 -26.99,0 -43.86,-13.4961 -43.86,-31.4961 0,-22.4883 20.24,-31.4922 39.74,-31.4922 30.75,0 49.49,26.25 49.49,26.25 z m 31.49,64.48 V 4.51172 h -28.87 V 29.625 c 0,0 -19.49,-29.625 -58.85,-29.625 -31.13,0 -64.5,21.7539 -64.5,59.2422 0,33.7422 29.62,57.7348 68.62,57.7348 31.86,0 52.11,-14.247 52.11,-14.247 v 9.375 c 0,35.997 -29.99,40.868 -43.87,40.868 -26.24,0 -51.73,-14.629 -51.73,-14.629 l -13.12,26.25 c 0,0 26.99,17.617 64.85,17.617 50.99,0 75.36,-31.492 75.36,-63.731" />
        <path
           inkscape:connector-curvature="0"
           id="path627"
           style="fill:#2a3741;fill-opacity:1;fill-rule:nonzero;stroke:none"
           d="m 4792.72,177.711 h 33.75 v 52.871 h 31.48 v -52.871 h 54 v -28.488 h -54 V 55.875 c 0,-16.875 8.25,-26.6211 25.13,-26.6211 9.75,0 19.86,7.1172 19.86,7.1172 L 4914.56,10.5 C 4899.57,2.26172 4888.69,0 4878.58,0 c -24.75,0 -52.11,16.1289 -52.11,54.3711 v 94.8519 h -33.75 v 28.488" />
        <path
           inkscape:connector-curvature="0"
           id="path629"
           style="fill:#2a3741;fill-opacity:1;fill-rule:nonzero;stroke:none"
           d="m 4969.32,177.711 h 31.49 V 4.51172 h -31.49 z m 15.74,76.863 c 11.62,0 21.38,-9.754 21.38,-21.375 0,-11.621 -9.76,-21.367 -21.38,-21.367 -11.62,0 -21.37,9.746 -21.37,21.367 0,11.621 9.75,21.375 21.37,21.375" />
        <path
           inkscape:connector-curvature="0"
           id="path631"
           style="fill:#2a3741;fill-opacity:1;fill-rule:nonzero;stroke:none"
           d="m 5204.4,91.1094 c 0,34.1206 -22.87,61.8636 -57.75,61.8636 -34.86,0 -57.73,-27.743 -57.73,-61.8636 0,-34.1133 22.87,-61.8555 57.73,-61.8555 34.88,0 57.75,27.7422 57.75,61.8555 z m 31.48,0 C 5235.88,40.1211 5197.65,0 5146.65,0 c -50.98,0 -89.22,40.1211 -89.22,91.1094 0,50.9846 38.24,91.1016 89.22,91.1016 51,0 89.23,-40.117 89.23,-91.1016" />
        <path
           inkscape:connector-curvature="0"
           id="path633"
           style="fill:#2a3741;fill-opacity:1;fill-rule:nonzero;stroke:none"
           d="M 5434.61,115.855 V 4.51172 h -31.49 V 110.609 c 0,29.61 -18.37,42.364 -41.61,42.364 -28.13,0 -43.12,-29.246 -43.12,-29.246 V 4.51172 H 5286.9 V 177.711 h 29.24 v -24.367 c 0,0 15.75,28.867 53.24,28.867 34.49,0 65.23,-23.613 65.23,-66.356" />
      </g>
    </g>
    <rect
       style="fill:#cc193a;fill-opacity:1;stroke-width:0.23362038"
       id="rect4386"
       width="207.13094"
       height="2.4568453"
       x="7.1737142"
       y="45.212696" />
  </g>
</svg>
